<?xml version="1.0" standalone="no"?>
<!DOCTYPE svg PUBLIC "-//W3C//DTD SVG 1.1//EN" "http://www.w3.org/Graphics/SVG/1.1/DTD/svg11.dtd" >
<svg xmlns="http://www.w3.org/2000/svg">
<metadata>Generated by IcoMoon</metadata>
<defs>
<font id="icomoon" horiz-adv-x="1024">
<font-face units-per-em="1024" ascent="960" descent="-64" />
<missing-glyph horiz-adv-x="1024" />
<glyph unicode="&#x20;" horiz-adv-x="512" d="" />
<glyph unicode="&#xe900;" glyph-name="apple" horiz-adv-x="853" d="M661.559 937.167c0.115-2.352-0.218-4.69-1.045-6.917l-9.498-64.042c-12.322-82.734-76.224-146.6-158.959-158.917l-64.623-9.625c3.341-10.984 6.093-22.086 8.29-33.125 13.815 0.602 27.597 2.248 41.041 5.583 83.58 20.687 189.090 36.889 263.582-21.708 66.714-52.507 98.761-156.423 97.92-317.708-0.627-119.134-69.235-256.58-166.878-334.251-50.231-39.957-103.394-60.459-155.917-60.459-14.882 0-29.722 1.638-44.459 4.958-29.146 6.579-59.918 6.579-89.082 0-66.586-15.031-135.94 4.203-200.416 55.501-97.634 77.658-166.224 215.108-166.833 334.251-0.835 161.263 31.214 265.166 97.916 317.666 74.46 58.632 179.991 42.403 263.584 21.708 7.906-1.969 15.922-3.401 24-4.417-12.734 57.256-41.858 114.259-94.667 142.417-8.43 4.5-11.625 14.971-7.125 23.417 4.521 8.408 14.962 11.637 23.417 7.125 38.036-20.296 65.62-52.497 84.791-89.292l5.625 37.75c12.32 82.744 76.181 146.617 158.916 158.958l93.794 13.958-3.375-22.833zM718.976 621.208c-48.947 38.462-121.114 43.18-233.92 15.292-14.511-3.576-29.355-5.383-44.25-6.25 0.845-8.329 1.493-16.581 1.749-24.583 0.299-9.546-7.185-17.519-16.748-17.833h-0.542c-9.285 0-16.996 7.363-17.292 16.709-0.281 8.482-0.933 17.226-1.917 26.083-12.849 1.071-25.637 2.774-38.167 5.875-112.81 27.897-184.995 23.2-233.917-15.292-57.754-45.466-85.448-140.44-84.666-290.333 0.561-107.652 65.233-236.877 153.792-307.332 39.023-31.078 100.509-64.777 171.25-48.794 17.050 3.836 34.592 5.751 52.125 5.751 17.553 0 35.111-1.916 52.165-5.751 70.882-16.021 132.228 17.724 171.251 48.794 88.559 70.46 153.254 199.735 153.792 307.332 0.772 149.888-26.927 244.865-84.706 290.333zM256.849 610.75c9.569 0 17.29-7.747 17.292-17.292 0-9.547-7.721-17.292-17.292-17.292-66.756-0.002-121.083-62.115-121.083-138.415-0.005-9.545-7.734-17.28-17.292-17.293-9.559 0-17.328 7.74-17.333 17.293 0 95.381 69.858 172.997 155.708 172.998zM476.224 605.667c6.758 6.766 17.694 6.766 24.457 0 6.758-6.743 6.767-17.695 0-24.458-20.565-20.58-47.915-31.914-76.956-31.917-29.045 0-56.43 11.357-77 31.917-6.763 6.747-6.749 17.692 0 24.458 6.766 6.766 17.693 6.766 24.458 0 14.031-14.044 32.739-21.75 52.542-21.75 19.804 0.003 38.458 7.709 52.5 21.75zM471.765 739.25l15.168 2.25c67.588 10.054 119.753 62.229 129.792 129.792l2.291 15.167-147.251-147.209zM576.265 911.792c-67.584-10.071-119.787-62.222-129.83-129.792l-3.337-22.542 155.669 155.709-22.502-3.375z" />
<glyph unicode="&#xe901;" glyph-name="apple-app" horiz-adv-x="883" d="M844.761 180.845c-14.417-33.58-32.224-65.603-53.142-95.571-27.969-39.858-50.854-67.439-68.488-82.764-27.33-25.127-56.641-38.022-88.011-38.743-22.514 0-49.664 6.405-81.281 19.403-31.719 12.934-60.864 19.361-87.52 19.361-27.948 0-57.92-6.426-89.988-19.361-32.115-12.998-57.983-19.774-77.758-20.434-30.073-1.296-60.063 11.949-90.012 39.774-19.094 16.684-42.967 45.233-71.597 85.688-30.711 43.213-55.964 93.308-75.738 150.447-21.175 61.687-31.803 121.443-31.803 179.281 0 66.263 14.315 123.403 42.987 171.29 22.554 38.477 52.524 68.796 90.053 91.083 36.818 22.033 78.828 33.889 121.732 34.357 23.895 0 55.222-7.395 94.173-21.916 38.827-14.562 63.749-21.957 74.688-21.957 8.157 0 35.861 8.651 82.803 25.871 44.406 15.984 81.874 22.595 112.566 19.98 83.195-6.715 145.687-39.506 187.233-98.58-74.378-45.069-111.185-108.2-110.444-189.188 0.657-63.093 23.541-115.595 68.527-157.265 20.392-19.361 43.153-34.315 68.467-44.925-5.307-15.462-11.126-30.748-17.447-45.829zM653.986 931.55c0-49.434-18.065-95.614-54.071-138.334-43.46-50.814-96.005-80.166-153-75.532-0.766 6.219-1.151 12.478-1.151 18.744 0 47.457 20.66 98.251 57.365 139.797 18.33 21.030 41.606 38.518 69.865 52.462 28.22 13.739 54.872 21.339 79.96 22.657 0.72-6.612 1.031-13.244 1.031-19.794z" />
<glyph unicode="&#xe902;" glyph-name="arr-d" horiz-adv-x="1408" d="M1233.414 814.541c37.482 37.482 98.259 37.466 135.75 0 37.491-37.491 37.491-98.26 0-135.75l-597.251-597.375c-37.476-37.477-98.257-37.449-135.749 0l-597.375 597.375c-37.49 37.49-37.49 98.259 0 135.75s98.26 37.49 135.75 0l529.375-529.375 529.5 529.375z" />
<glyph unicode="&#xe903;" glyph-name="arr-l" horiz-adv-x="1243" d="M458.643 910.997c21.462 21.371 56.193 21.307 77.571-0.143 21.359-21.469 21.316-56.2-0.143-77.572l-348.5-346.929h964.429c30.288 0 54.85-24.569 54.857-54.857 0-30.297-24.561-54.857-54.857-54.857h-964.285l348.357-346.928c21.451-21.38 21.516-56.108 0.143-77.575-21.374-21.445-56.106-21.497-77.571-0.139l-442.5 440.643c-3.049 3.037-5.629 6.469-7.857 10.072-5.186 8.378-8.286 18.208-8.286 28.785 0.003 9.185 2.435 17.753 6.429 25.357 2.571 4.933 5.706 9.58 9.714 13.572l442.5 440.572z" />
<glyph unicode="&#xe904;" glyph-name="arr-r" horiz-adv-x="1161" d="M643 895.392c18.698 18.767 48.323 20.002 68.468 3.667l3.932-3.533 413-411.2c2.383-2.374 4.485-4.977 6.335-7.734 1.871-2.767 3.427-5.75 4.731-8.866 1.365-3.277 2.335-6.696 3.004-10.2 0.58-3.095 0.997-6.269 0.997-9.533 0-14.318-5.926-27.242-15.401-36.534l-412.665-411.002c-20.029-19.948-52.446-19.886-72.4 0.137-19.952 20.036-19.9 52.442 0.133 72.397l325.065 323.802h-899.932c-28.277 0-51.2 22.923-51.2 51.2 0.016 28.263 22.933 51.2 51.2 51.2h900.069l-325.202 323.8-3.533 3.867c-16.437 20.074-15.302 49.751 3.4 68.534z" />
<glyph unicode="&#xe905;" glyph-name="arr-r1" horiz-adv-x="1243" d="M707.215 910.851c20.033 20.108 51.774 21.43 73.359 3.929l4.213-3.786 442.5-440.571c2.553-2.544 4.805-5.333 6.788-8.286 2.019-2.991 3.738-6.201 5.142-9.571 1.441-3.486 2.436-7.133 3.145-10.857 0.622-3.316 1.068-6.716 1.068-10.214 0-15.141-6.151-28.86-16.069-38.785l-0.073-0.072-442.5-440.64c-21.467-21.38-56.194-21.321-77.572 0.139-21.377 21.467-21.32 56.196 0.143 77.575l348.284 346.926h-964.213c-30.297 0-54.857 24.561-54.857 54.857 0.016 30.283 24.57 54.857 54.857 54.857h964.359l-348.431 346.928-3.786 4.144c-17.611 21.507-16.391 53.304 3.643 73.428z" />
<glyph unicode="&#xe906;" glyph-name="bag" d="M698.482 716.63c0 102.985-83.498 186.481-186.482 186.481s-186.481-83.496-186.481-186.481v-132.741h372.963v132.741zM698.482 394.259v132.741h-372.963v-132.741c-0.006-15.705-12.739-28.444-28.444-28.444-15.701 0.008-28.438 12.743-28.444 28.444v132.741h-109l-97.074-534.111h898.889l-97.075 534.111h-108.999v-132.741c-0.008-15.701-12.743-28.437-28.444-28.444-15.705 0-28.437 12.739-28.444 28.444zM755.371 583.889h132.741l5.037-0.444c11.492-2.066 20.768-11.063 22.926-22.888l107.482-591.038c1.502-8.291-0.755-16.828-6.148-23.298-5.404-6.474-13.418-10.221-21.853-10.221h-967.111c-8.434 0-16.448 3.747-21.852 10.221-5.396 6.47-7.65 15.007-6.148 23.298l107.482 591.038 1.333 4.889c4.092 10.93 14.611 18.438 26.63 18.444h132.741v132.741c0 134.405 108.968 243.37 243.37 243.37s243.371-108.966 243.371-243.37v-132.741z" />
<glyph unicode="&#xe907;" glyph-name="bag2" horiz-adv-x="825" d="M518.224 430.527c9.961 9.742 26.069 9.748 36.028 0 9.956-9.958 9.95-26.064 0-36.028l-168.084-168.11c-5.089-4.875-11.457-7.418-18.028-7.418s-13.156 2.543-18.028 7.418l-79.25 79.278c-9.964 9.964-9.964 26.066 0 36.028 9.961 9.964 26.065 9.964 36.029 0l61.249-61.249 150.084 150.081zM412.444 960c110.43-0.003 200.286-89.874 200.499-200.305h124.223c13.352 0 24.383-9.969 25.444-23.111l58.917-664.084v-2.332c-0.003-73.973-68.042-134.167-151.555-134.167h-515.083c-83.506 0.006-151.552 60.197-151.555 134.167v2.332l58.944 664.084c1.272 13.142 12.303 23.111 25.444 23.111h124.195c0.214 110.433 90.095 200.305 200.528 200.305zM111.028 708.833l-56.806-639.5c0.636-45.568 45.562-82.244 100.667-82.25h515.083c55.111 0 100.056 36.668 100.696 82.028l-56.806 639.722h-100.918v-89.251c0-13.983-11.429-25.441-25.415-25.444-13.989 0-25.444 11.457-25.446 25.444v89.251h-299.277v-89.251c-0.001-13.986-11.456-25.441-25.444-25.444-13.988 0-25.443 11.457-25.444 25.444v89.251h-100.889zM412.444 909.139c-82.455 0-149.428-66.991-149.639-149.444h299.277c-0.21 82.452-67.186 149.441-149.638 149.444z" />
<glyph unicode="&#xe908;" glyph-name="Blockquote" horiz-adv-x="1300" d="M957.92 960c-133.376 0-241.707-104.643-241.707-233.693 0-128.969 108.331-233.693 241.707-233.693 229.148 0 96.362-405.811-192.638-448.083-13.635-1.942-26.080-8.409-35.080-18.227-9.003-9.815-13.966-22.335-13.989-35.293 0-33.178 31.583-59.42 66.56-54.394 525.277 74.815 712.054 1023.302 175.147 1023.302v0.080zM261.487 960c-133.548 0-241.795-104.563-241.795-233.693 0-128.89 108.247-233.531 241.795-233.531 229.060 0 96.276-405.973-192.723-448.244-13.621-1.942-26.054-8.397-35.054-18.196s-13.971-22.3-14.018-35.241c0-33.182 31.583-59.42 66.477-54.398 525.447 74.815 712.224 1023.303 175.319 1023.303z" />
<glyph unicode="&#xe909;" glyph-name="chat" horiz-adv-x="1097" d="M98.714 199.285h303.143c11.009 0.007 21.871-2.107 32-6.217l9.857-4.784 9.214-5.998c5.829-4.374 11.045-9.501 15.571-15.214l6.286-9.004 73.786-122.997 73.857 122.997 6.214 9.004c6.796 8.58 15.223 15.799 24.785 21.211l9.857 4.784c10.117 4.118 20.982 6.217 32 6.217h303.143v652.858h-899.715v-652.858zM1086.142 196.571c0-22.528-8.931-44.134-24.854-60.072-15.945-15.96-37.595-24.927-60.145-24.927h-304.286l-75.429-125.572c-7.559-12.603-18.243-23.055-30.999-30.288v-0.066c-12.747-7.212-27.171-11.001-41.857-11.001-14.697 0-29.174 3.789-41.928 11.001v0.066c-12.754 7.234-23.444 17.62-31 30.215l-75.357 125.645h-304.286c-22.557 0-44.202 8.916-60.143 24.854-15.956 15.952-24.857 37.603-24.857 60.145v658.286c0 22.55 8.91 44.196 24.857 60.143l6.286 5.643c15.127 12.385 34.136 19.214 53.857 19.214h905.143c19.734 0 38.795-6.801 53.928-19.214l6.217-5.643 5.639-6.286c12.383-15.123 19.215-34.132 19.215-53.857v-658.286z" />
<glyph unicode="&#xe90a;" glyph-name="check" horiz-adv-x="1451" d="M1233.835 863.916c33.323 33.321 87.339 33.312 120.661 0 33.331-33.325 33.331-87.342 0-120.667l-782.163-782.246c-15.997-16-37.711-24.994-60.333-25.003-22.619 0-44.333 9.011-60.333 25.003l-355.583 355.58c-33.325 33.325-33.324 87.342 0 120.667 31.242 31.241 80.65 33.17 114.167 5.833l6.5-5.833 295.166-295.167 721.918 721.834z" />
<glyph unicode="&#xe90b;" glyph-name="coffee" horiz-adv-x="811" d="M676.25 922.708h0.085c31.036 0 57.498-26.461 57.498-59v-15.416h9.041c36.066-0.002 65.429-29.355 65.459-65.417v-83.5c0-36.071-29.355-65.405-65.417-65.417h-1.084l-63.458-641.041c0.064-22.797-14.818-43.418-35.998-52.292-7.061-2.965-14.831-4.625-22.959-4.625h-428.209c-32.578 0-59.042 26.505-59.042 59.042l-63.334 638.874h-2.083c-36.066 0.007-65.407 29.359-65.417 65.417v83.542c0.008 36.067 29.358 65.41 65.417 65.417h9.042v52.666c0 32.539 26.497 59.042 59.083 59.042l541.375-37.292zM563.085 217.54c-39.625-46.217-96.324-72.499-157.542-72.499-61.238 0-117.918 26.266-157.542 72.499l-92.167-16.917 19.542-200.58 0.292-2.833c0.086-7.898 4.067-13.85 9.583-16.333 1.83-0.836 3.838-1.25 5.917-1.25h428.251c8.367 0.004 15.428 7.070 15.458 15.415l19.959 205.581-91.75 16.917zM405.542 468.501c-51.962-0.009-99.801-24.026-131.251-65.835l-8.083-10.667-131.959 23.458 17-171.332 114.917 21.082 8.125-10.748c31.441-41.809 79.281-65.83 131.251-65.835 51.951 0 99.797 24.021 131.251 65.835l8.124 10.748 114.543-21.082 16.956 171.332-131.541-23.501-8.081 10.709c-31.445 41.813-79.3 65.835-131.251 65.835zM404.833 436.54c66.121 0 119.958-48.917 119.958-109.039-0.009-60.126-53.82-109.039-119.958-109.043-66.143 0-119.949 48.917-119.958 109.043 0 60.126 53.81 109.039 119.958 109.039zM404.833 392.96c-42.094 0-76.333-29.389-76.333-65.459 0.010-36.070 34.246-65.417 76.333-65.417 42.062 0 76.323 29.346 76.332 65.417 0 36.066-34.24 65.455-76.332 65.459zM112.708 633.917l17.708-173.415 117.5-20.958c39.633 46.281 96.359 72.58 157.626 72.58 61.239 0 117.961-26.287 157.581-72.542l117.086 20.877 17.707 173.458h-585.207zM66.75 804.667c-12.004-0.007-21.783-9.764-21.792-21.792v-83.542c0.010-12.026 9.788-21.784 21.792-21.792h676.124c12.019 0.002 21.781 9.762 21.794 21.792v83.542c-0.009 12.031-9.775 21.79-21.794 21.792h-676.124zM133.333 916.417c-7.018-0.049-13.917-6.957-13.917-15.459v-52.666h570.793v15.416c0 8.522-6.912 15.456-15.42 15.459l-541.457 37.25z" />
<glyph unicode="&#xe90c;" glyph-name="cupcake" d="M533.291 960c84.297-0.002 152.917-78.589 152.917-175.167 0-9.241-0.819-18.418-2.415-27.542 77.973-3.117 140.454-67.532 140.459-146.25 0-12.586-1.638-24.977-4.791-37 83.145-23.531 141.372-99.042 141.372-187.418 0-3.627-0.209-7.36-0.457-11.209 19.358-7.586 37.559-18.982 53.21-34.458l10.415-10.334-187.209-344.209c-11.81-29.12-40.614-48.58-72.124-48.58h-505.293c-31.512 0-60.352 19.456-72.166 48.58l-187.209 344.252 10.5 10.334c15.646 15.415 33.811 26.748 53.167 34.334-0.258 3.861-0.458 7.625-0.458 11.29 0 95.125 68.434 175.020 159.791 191.709-2.438 10.656-3.667 21.607-3.667 32.708 0.002 78.962 62.863 143.515 141.167 146.25-1.577 9.128-2.374 18.321-2.375 27.542 0 96.594 68.64 175.167 152.958 175.167h22.208zM510.835 347.29c-29.274-0.661-58.338-11.895-80.627-34.082l-13.708-13.623-13.75 13.542c-43.724 43.098-112.956 45.124-159.791 7.206-2.961-2.415-6.161-4.471-8.958-7.206l-13.667-13.461-13.667 13.461h-0.042c-0.074 0.073-0.175 0.137-0.25 0.209-4.686 4.582-9.749 8.576-14.958 12.25-1.678 1.186-3.434 2.24-5.167 3.332-4.023 2.513-8.182 4.783-12.416 6.793-1.701 0.819-3.344 1.698-5.083 2.415-5.704 2.381-11.555 4.331-17.5 5.79-1.572 0.393-3.204 0.593-4.791 0.917-4.721 0.96-9.493 1.651-14.292 2.044-2.007 0.154-4.054 0.311-6.083 0.375-4.937 0.154-9.871-0.009-14.792-0.461-1.48-0.115-2.937-0.137-4.417-0.333-20.703-2.633-40.89-10.5-58.125-23.791l174.375-320.96c5.722-14.861 20.308-24.875 36.25-24.875h505.293c15.932 0.004 30.485 9.997 36.207 24.875l1.084 2.334 173.376 318.669c-17.126 13.261-37.133 21.129-57.711 23.748-1.515 0.171-3.025 0.154-4.54 0.294-4.821 0.418-9.707 0.614-14.541 0.457-2.065-0.055-4.126-0.205-6.17-0.375-4.663-0.388-9.306-1.062-13.914-2.001-1.673-0.329-3.388-0.542-5.043-0.956-5.909-1.463-11.682-3.388-17.331-5.751-1.715-0.717-3.337-1.621-5.001-2.415-4.245-2.018-8.397-4.254-12.42-6.793-1.694-1.071-3.401-2.142-5.039-3.294-5.265-3.725-10.385-7.77-15.125-12.459l-13.79-13.623-13.709 13.666c-40.196 40-102.464 45.009-148.169 15.002-3.251-2.146-6.426-4.459-9.498-6.959l-8.96-8.043-13.794-13.709-13.747 13.709c-5.739 5.709-11.93 10.714-18.458 15.002-18.697 12.271-40.192 18.436-61.794 18.999-1.033 0.021-2.031 0.329-3.042 0.333-0.896 0-1.809-0.235-2.705-0.252zM233.667 268.834c10.328 2.944 21.097-3.285 23.959-13.666l58.542-214.669c2.834-10.402-3.276-21.099-13.667-23.957-1.719-0.469-3.464-0.708-5.167-0.708-8.578 0-16.417 5.73-18.792 14.417l-58.542 214.626c-2.826 10.389 3.272 21.099 13.667 23.957zM412.667 269.457c10.844 0.883 20.233-6.972 21.206-17.664l19.503-214.626c0.969-10.748-6.938-20.233-17.668-21.21-0.585-0.055-1.212-0.081-1.792-0.081-9.982 0.009-18.5 7.625-19.416 17.749l-19.5 214.626c-0.968 10.718 6.942 20.228 17.667 21.205zM611.375 269.457c10.731-0.977 18.62-10.483 17.668-21.205l-19.503-214.626c-0.913-10.103-9.429-17.745-19.413-17.749-0.589 0-1.19 0.026-1.792 0.081-10.752 0.981-18.637 10.466-17.668 21.21l19.499 214.626c0.986 10.709 10.436 18.586 21.21 17.664zM790.332 268.877c10.398-2.859 16.499-13.589 13.67-23.962l-58.543-214.622c-2.359-8.687-10.21-14.417-18.795-14.417-1.694 0-3.447 0.23-5.163 0.708-10.394 2.85-16.503 13.577-13.67 23.957l58.543 214.626c2.829 10.398 13.521 16.533 23.957 13.709zM511.040 920.958c-62.793-0.003-113.873-61.057-113.873-136.125 0.001-14.34 2.53-28.657 7.584-42.583 2.368-6.509 1.127-13.808-3.334-19.125-4.426-5.347-11.427-7.86-18.25-6.75-10.082 1.734-15.287 2-17.5 2-59.176 0-107.328-48.174-107.333-107.333 0-14.438 2.854-28.474 8.416-41.708 2.451-5.862 1.913-12.54-1.458-17.917-3.356-5.399-9.124-8.751-15.458-9.125-82.753-4.492-147.575-72.877-147.584-155.668v-1.331c1.312 0.166 2.635 0.145 4 0.29 4.090 0.414 8.22 0.649 12.334 0.751 1.211 0.017 2.429 0.209 3.625 0.209 0.672-0.004 1.328-0.166 2-0.166 7.471-0.081 14.906-0.725 22.292-1.835 1.305-0.218 2.654-0.431 3.959-0.666 7.558-1.353 15.042-3.191 22.375-5.628 0.884-0.294 1.775-0.644 2.667-0.956 7.54-2.645 14.948-5.811 22.083-9.626 0.529-0.273 1.037-0.602 1.542-0.875 7.336-4.015 14.474-8.559 21.208-13.833 57.205 44.706 138.808 44.715 196.042 0.081 56.713 44.604 137.524 44.604 194.249 0 53.001 41.681 126.707 43.887 182.46 7.667 3.917-2.551 7.987-4.749 11.708-7.667 4.092 3.191 8.303 6.127 12.625 8.875 0.503 0.333 1.041 0.576 1.54 0.875 3.84 2.381 7.757 4.621 11.75 6.626 0.798 0.414 1.664 0.734 2.458 1.126 3.776 1.818 7.552 3.541 11.418 5.039 1.028 0.414 2.057 0.755 3.085 1.126 3.661 1.318 7.339 2.573 11.085 3.627 1.289 0.375 2.611 0.67 3.917 0.998 3.469 0.896 6.955 1.694 10.458 2.334 1.583 0.294 3.196 0.576 4.791 0.832 3.226 0.508 6.464 0.879 9.707 1.169 1.869 0.179 3.733 0.341 5.623 0.457 2.961 0.179 5.952 0.209 8.917 0.209 2.125 0.021 4.254 0.034 6.374-0.043 2.697-0.115 5.372-0.35 8.043-0.585 1.758-0.154 3.511-0.162 5.252-0.375v1.293c-0.009 76.915-55.142 141.619-131.085 153.876-5.965 0.978-11.174 4.697-14.042 10-2.876 5.326-3.153 11.673-0.708 17.208 6.101 13.771 9.207 28.352 9.207 43.334-0.004 59.167-48.158 107.333-107.332 107.333-2.543-0.001-7.471-0.39-16.499-2.042-6.908-1.25-13.926 1.338-18.419 6.667-4.501 5.325-5.79 12.636-3.413 19.209 5.069 13.911 7.62 28.269 7.625 42.625 0 75.063-51.098 136.113-113.877 136.125h-22.251zM751.876 458.957c7.625 7.625 19.989 7.625 27.622 0l19.503-19.499c7.625-7.62 7.62-19.951 0-27.584-3.802-3.802-8.798-5.747-13.794-5.747-4.992 0-9.98 1.946-13.79 5.747l-19.541 19.503c-7.62 7.62-7.616 19.951 0 27.58zM566.498 458.999c7.633 7.629 19.994 7.633 27.627 0l19.499-19.541c7.625-7.633 7.629-19.955 0-27.584-3.802-3.802-8.794-5.705-13.79-5.709-4.988 0-9.988 1.911-13.79 5.709l-19.546 19.541c-7.607 7.629-7.62 19.964 0 27.584zM200.791 485.999c3.414 10.219 14.458 15.774 24.709 12.335l58.542-19.541c10.214-3.401 15.745-14.455 12.333-24.666-2.735-8.179-10.363-13.333-18.542-13.333-2.021 0-4.122 0.32-6.167 0.998l-58.542 19.499c-10.223 3.392-15.745 14.46-12.334 24.708zM429.457 562.25c10.752-0.648 18.94-9.898 18.291-20.666l-1.621-27.54c-0.602-10.364-9.216-18.33-19.46-18.334-0.391 0-0.802 0.017-1.208 0.038-10.754 0.631-18.94 9.839-18.292 20.625l1.625 27.543c0.641 10.734 9.722 18.896 20.666 18.333zM617.293 613.417c10.436 2.929 21.141-3.338 23.957-13.75 2.803-10.399-3.345-21.112-13.751-23.917l-84.207-22.792c-1.711-0.469-3.447-0.708-5.124-0.708-8.606 0.004-16.474 5.728-18.833 14.417-2.812 10.406 3.349 21.146 13.747 23.958l84.211 22.792zM420.125 688.666c7.634 7.625 19.99 7.625 27.623 0l19.503-19.5c7.625-7.631 7.625-19.952 0-27.583-3.802-3.802-8.802-5.706-13.794-5.708-4.996 0-9.988 1.907-13.79 5.708l-19.542 19.5c-7.62 7.62-7.61 19.949 0 27.583zM523.166 860.542c10.419 2.575 21.052-3.734 23.667-14.208l19.499-78.042c2.603-10.437-3.746-21.016-14.208-23.625-1.596-0.388-3.166-0.625-4.749-0.625-8.738 0.001-16.687 5.925-18.918 14.792l-19.499 78.083c-2.586 10.435 3.759 21.009 14.208 23.625z" />
<glyph unicode="&#xe90d;" glyph-name="cutlery" horiz-adv-x="427" d="M161.542 960c9.594 0 17.341-7.773 17.333-17.375v-225.625c-0.007-41.907-29.867-76.931-69.417-85v-177.792c29.852-7.757 52.083-34.701 52.083-66.957v-381.833c-0.003-38.281-31.138-69.41-69.417-69.419-38.28 0-69.456 31.13-69.458 69.419v381.833c0 32.256 22.234 59.196 52.083 66.957v177.792c-39.546 8.072-69.409 43.111-69.417 85v225.625c0 9.602 7.773 17.375 17.375 17.375 9.587-0.008 17.333-7.779 17.333-17.375v-225.625c0.007-22.587 14.564-41.689 34.708-48.875v274.5c0 9.602 7.782 17.375 17.375 17.375 9.597-0.006 17.333-7.777 17.333-17.375v-274.5c20.144 7.186 34.702 26.288 34.708 48.875v225.625c0 9.601 7.774 17.374 17.375 17.375zM300.583 960c38.039 0 66.045-9.56 85.583-29.208 36.793-36.985 36.422-102.391 36-185.208l-0.083-38.292c0.031-123.308-0.105-208.117-44.375-265.457 16.312-12.719 27-32.358 27-54.583v-381.833c-0.003-38.281-31.129-69.419-69.417-69.419-38.277 0.004-69.414 31.138-69.417 69.419v381.833c0 18.057 7.084 34.398 18.417 46.75-0.561 1.698-1.042 3.447-1.042 5.333v503.291c0 9.598 7.737 17.369 17.333 17.375zM92.125 421.956c-19.141 0-34.708-15.565-34.708-34.705v-381.833c0.003-19.14 15.569-34.709 34.708-34.709 19.142 0.004 34.705 15.573 34.708 34.709v381.833c0 19.136-15.565 34.701-34.708 34.705zM335.292 421.956c-19.138 0-34.708-15.569-34.708-34.705v-381.833c0.003-19.14 15.572-34.709 34.708-34.709 19.147 0 34.705 15.569 34.708 34.709v381.833c0 19.14-15.56 34.705-34.708 34.705zM92.083 300.459c9.583 0 17.371-7.753 17.375-17.335 0-9.583-7.789-17.374-17.375-17.374-9.57 0.009-17.333 7.795-17.333 17.374 0.004 9.579 7.766 17.327 17.333 17.335zM335.292 300.459c9.576-0.009 17.329-7.757 17.333-17.335 0-9.579-7.755-17.365-17.333-17.374-9.586 0-17.375 7.791-17.375 17.374 0.004 9.583 7.792 17.335 17.375 17.335zM92.083 369.916c9.585 0 17.374-7.791 17.375-17.374 0-9.587-7.789-17.374-17.375-17.374-9.57 0.009-17.333 7.795-17.333 17.374 0.002 9.579 7.764 17.365 17.333 17.374zM335.292 369.916c9.578-0.009 17.332-7.795 17.333-17.374 0-9.583-7.755-17.365-17.333-17.374-9.586 0-17.375 7.787-17.375 17.374 0.001 9.583 7.79 17.374 17.375 17.374zM317.958 454.208c5.587 1.451 11.318 2.458 17.333 2.458 3.013 0 5.922-0.491 8.833-0.875 43.147 47.697 43.289 129.424 43.25 251.501l0.083 38.458c0.383 74.773 0.685 133.818-25.917 160.583-9.888 9.937-24.331 15.767-43.583 17.917v-470.042z" />
<glyph unicode="&#xe90e;" glyph-name="Dashboard" horiz-adv-x="1081" d="M1052.444-64h-455.111v341.333h455.111v-341.333zM483.556-64h-455.111v568.889h455.111v-568.889zM1052.444 391.111h-455.111v568.889h455.111v-568.889zM483.556 618.667h-455.111v341.333h455.111v-341.333z" />
<glyph unicode="&#xe90f;" glyph-name="delivery-truck" horiz-adv-x="1499" d="M1214.248 217.45c-35.745 0-69.701-14.003-95.32-39.322-25.618-25.618-39.914-58.979-39.914-94.724s14-69.105 39.914-94.724c25.915-25.318 59.575-39.318 95.32-39.318 73.278 0 132.853 60.171 132.853 134.042 0 73.874-59.575 134.045-132.853 134.045zM1214.248 8.938c-41.106 0-75.659 33.957-75.659 74.467s34.553 74.47 75.659 74.47c40.51 0 73.278-33.364 73.278-74.47s-32.768-74.467-73.278-74.467zM1248.801 663.962c-5.361 5.061-12.511 7.742-19.957 7.742h-152.81c-16.38 0-29.787-13.403-29.787-29.784v-244.257c0-16.384 13.407-29.787 29.787-29.787h242.469c16.384 0 29.787 13.403 29.787 29.787v163.533c0 8.338-3.573 16.38-9.827 22.042l-89.662 80.724zM1288.715 427.451h-182.894v184.978h111.404l71.49-64.34v-120.638zM486.843 217.45c-35.745 0-69.705-14.003-95.32-39.322-25.618-25.618-39.917-58.979-39.917-94.724s14-69.105 39.917-94.724c25.915-25.318 59.575-39.318 95.32-39.318 73.275 0 132.849 60.171 132.849 134.042 0 73.874-59.575 134.045-132.849 134.045zM486.843 8.938c-41.11 0-75.663 33.957-75.663 74.467s34.553 74.47 75.663 74.47c40.51 0 73.275-33.364 73.275-74.47s-32.764-74.467-73.275-74.467zM288.159 180.809h-59.873v79.236c0 16.384-13.404 29.787-29.787 29.787s-29.787-13.403-29.787-29.787v-109.023c0-16.38 13.404-29.787 29.787-29.787h89.66c16.383 0 29.787 13.407 29.787 29.787 0 16.384-13.404 29.787-29.787 29.787zM439.183 343.15c0 16.384-13.407 29.787-29.787 29.787h-361.322c-16.383 0-29.787-13.403-29.787-29.787 0-16.38 13.404-29.787 29.787-29.787h361.322c16.38 0 29.787 13.107 29.787 29.787zM108.541 450.684l361.321-2.085c16.384 0 29.787 13.104 30.084 29.488 0.3 16.68-13.104 30.087-29.488 30.087l-361.321 2.085c-0.298 0-0.298 0-0.298 0-16.383 0-29.787-13.107-29.787-29.491-0.298-16.68 13.106-30.084 29.489-30.084zM169.308 585.918h361.322c16.38 0 29.787 13.403 29.787 29.787s-13.407 29.787-29.787 29.787h-361.322c-16.383 0-29.787-13.403-29.787-29.787s13.404-29.787 29.787-29.787zM1470.12 626.132l-213.277 176.636c-5.361 4.469-11.915 6.853-19.061 6.853h-250.811v107.234c0 16.383-13.403 29.787-29.787 29.787h-758.685c-16.383 0-29.787-13.405-29.787-29.787v-218.045c0-16.38 13.404-29.787 29.787-29.787s29.787 13.407 29.787 29.787v188.258h699.406v-706.259h-244.257c-16.38 0-29.787-13.403-29.787-29.787 0-16.38 13.407-29.787 29.787-29.787h363.707c16.38 0 29.787 13.407 29.787 29.787 0 16.384-13.407 29.787-29.787 29.787h-59.875v569.238h240.088l194.213-160.852-2.085-407.79h-30.98c-16.384 0-29.787-13.403-29.787-29.787s13.403-29.787 29.787-29.787h60.467c16.384 0 29.787 13.107 29.787 29.491l2.384 451.577c-0.296 8.934-4.169 17.573-11.023 23.234z" />
<glyph unicode="&#xe910;" glyph-name="discount-tag" horiz-adv-x="838" d="M647.91 944.481c8.028-0.003 14.544-6.514 14.544-14.545v-162.909c0-4.529-0.264-9.013-0.695-13.455 7.056-4.597 13.56-10.394 19.211-17.242l107.88-130.696c12.282-14.885 19.059-32.641 19.059-50.002v-349.091c0-8.028-6.516-14.541-14.544-14.544-8.034 0-14.547 6.513-14.547 14.544v349.091c0 10.619-4.403 21.802-12.394 31.486l-107.877 130.696c-1.17 1.416-2.405 2.759-3.668 4.030-13.203-38.314-42.831-69.7-82.001-84.516-2.765-22.503-21.976-39.995-45.211-39.998-25.131 0-45.574 20.446-45.577 45.574 0 25.131 20.446 45.577 45.577 45.577 16.614-0.003 31.161-8.953 39.12-22.273 30.459 12.984 53.018 38.918 62.123 69.97-2.69 0.522-5.418 0.788-8.152 0.788h-188.121c-13.973 0-27.747-6.988-37.789-19.152l-107.878-130.696c-6.941-8.406-10.455-19-10.455-31.486v-502.303c0.001-40.1 31.756-72.726 70.788-72.726h358.788c39.418 0.003 72.726 33.305 72.726 72.726v85.333c0 8.034 6.513 14.547 14.547 14.547 8.028-0.003 14.544-6.513 14.544-14.547v-85.333c0-55.187-46.629-101.814-101.817-101.817h-358.788c-35.011 0-65.858 18.491-83.697 46.362-0.216 0.084-0.454 0.149-0.667 0.242l-175.727 77.88c-48.428 21.457-70.448 78.358-49.152 126.939l94.727 235.396c3.003 7.444 11.485 11.059 18.939 8.059 7.446-3.001 11.058-11.487 8.060-18.938l-94.818-235.607c-0.059-0.14-0.12-0.282-0.182-0.425-15.002-33.975 0.329-73.846 34.182-88.849l149.879-66.392c-0.93 5.579-1.424 11.307-1.424 17.15v502.303c0 19.146 5.901 36.439 17.091 50.002l74.789 90.605-74.91-36.485c-9.443-4.74-17.145-12.806-21.546-22.637l-58.515-148.393c-2.254-5.719-7.72-9.21-13.515-9.213-1.774 0-3.584 0.313-5.333 0.999-7.474 2.948-11.158 11.404-8.212 18.879l58.636 148.697c0.068 0.171 0.137 0.344 0.212 0.515 7.104 16.119 19.683 29.333 35.394 37.213l141.788 69.091c0.484 0.236 0.987 0.428 1.486 0.606 11.621 6.827 24.607 10.546 37.848 10.546h188.121c4.22 0 8.412-0.39 12.546-1.121 0.012 0.694 0.059 165 0.059 165 0 8.033 6.513 14.545 14.547 14.545zM527.667 659.39c-9.089 0-16.486-7.395-16.486-16.486 0.003-9.086 7.398-16.483 16.486-16.483 9.083 0.003 16.483 7.401 16.483 16.483 0 9.088-7.398 16.481-16.483 16.486zM639.575 443.755c5.675 5.663 14.87 5.663 20.545 0 5.682-5.679 5.682-14.895 0-20.576l-248.242-248.242c-2.839-2.839-6.55-4.273-10.271-4.273-12.443-0.441-19.549 16.204-10.274 24.849l248.242 248.242zM622.666 296.724c34.754 0 63.032-28.278 63.032-63.032-0.003-34.751-28.281-63.029-63.032-63.029h-1.939c-34.751 0-63.029 28.278-63.029 63.029 0 34.754 28.275 63.032 63.029 63.032h1.939zM620.727 267.633c-18.714 0-33.938-15.23-33.938-33.941s15.227-33.938 33.938-33.938h1.939c18.711 0 33.938 15.227 33.941 33.938 0 18.711-15.227 33.941-33.941 33.941h-1.939zM432.606 449.936c34.754 0 63.032-28.278 63.032-63.032-0.003-34.751-28.281-63.029-63.032-63.029h-1.939c-34.751 0-63.026 28.278-63.029 63.029 0 34.754 28.275 63.032 63.029 63.032h1.939zM430.666 420.845c-18.714 0-33.938-15.23-33.938-33.941 0.003-18.711 15.227-33.938 33.938-33.938h1.939c18.711 0 33.938 15.227 33.941 33.938 0 18.711-15.227 33.941-33.941 33.941h-1.939z" />
<glyph unicode="&#xe911;" glyph-name="email" horiz-adv-x="1274" d="M387.829 398.806c5.125 5.747 12.972 8.262 20.487 6.584 7.508-1.676 13.514-7.285 15.707-14.658 2.195-7.373 0.23-15.37-5.145-20.877l-297.22-318.439c-5.123-5.747-12.949-8.284-20.463-6.611-7.513 1.678-13.537 7.303-15.732 14.683-2.191 7.38-0.207 15.37 5.171 20.88l297.195 318.439zM865.44 405.389c7.515 1.678 15.365-0.837 20.487-6.584l297.195-318.439c7.678-8.614 7.071-21.786-1.366-29.659-8.434-7.865-21.601-7.545-29.659 0.707l-297.22 318.439c-5.375 5.507-7.34 13.502-5.145 20.877 2.193 7.373 8.199 12.982 15.707 14.658zM1169.463 851.268c5.607-0.492 10.797-3.198 14.416-7.512 3.616-4.308 5.365-9.881 4.878-15.488-0.49-5.606-3.179-10.796-7.488-14.415l-489.757-411.414c-31.569-26.577-77.702-26.577-109.268 0l-489.756 411.414c-5.804 4.875-8.562 12.482-7.244 19.951 1.32 7.466 6.511 13.675 13.634 16.268 7.128 2.592 15.118 1.169 20.927-3.707l489.755-411.415c15.797-13.272 38.84-13.275 54.637 0l489.754 411.415c4.311 3.622 9.903 5.393 15.512 4.902zM1210.073 936.268c35.171-0.003 63.68-28.514 63.683-63.683v-849.17c0-35.171-28.512-63.68-63.683-63.683h-1146.39c-35.173 0.002-63.683 28.515-63.683 63.683v849.17c0.003 35.171 28.514 63.68 63.683 63.683h1146.39zM63.683 893.805c-11.721-0.002-21.217-9.498-21.219-21.22v-849.17c0-11.721 9.496-21.242 21.219-21.244h1146.39c11.724 0.002 21.219 9.523 21.219 21.244v849.17c-0.002 11.721-9.498 21.217-21.219 21.22h-1146.39z" />
<glyph unicode="&#xe912;" glyph-name="Envelope" horiz-adv-x="1097" d="M530.62 955.283c11.927 6.726 26.717 6.252 38.237-1.429l512-341.334c0.051-0.034 0.093-0.083 0.144-0.117 1.146-0.773 2.245-1.614 3.308-2.526 0.078-0.066 0.163-0.122 0.239-0.19 2.128-1.853 4.098-3.957 5.81-6.356 0.89-1.248 1.668-2.543 2.38-3.857 0.071-0.132 0.122-0.273 0.19-0.405 0.59-1.117 1.109-2.25 1.573-3.406 0.095-0.234 0.173-0.475 0.261-0.714 1.543-4.096 2.336-8.355 2.358-12.617 0-0.080 0.024-0.161 0.024-0.239v-554.667c0-21.016-8.355-41.165-23.213-56.025-14.86-14.858-35.009-23.213-56.025-23.213h-938.667c-21.016 0-41.165 8.355-56.024 23.213-14.859 14.86-23.214 35.011-23.214 56.025v554.667c0 0.183 0.021 0.366 0.024 0.549 0.018 1.309 0.102 2.619 0.262 3.928 0.011 0.088 0.012 0.176 0.024 0.261 0.364 2.814 1.060 5.6 2.095 8.311 0.061 0.158 0.127 0.317 0.19 0.475 1.065 2.672 2.446 5.266 4.19 7.714 1.686 2.365 3.62 4.452 5.714 6.285 0.114 0.1 0.218 0.212 0.333 0.31 1.298 1.107 2.654 2.121 4.071 3.023l513.715 342.334zM467.095 246.855l-319.31-225.524h801.523l-319.261 225.524h-162.953zM704.858 283.57l319.142-225.429v452.952l-319.142-227.523zM73.143 58.163l319.12 225.407-319.12 227.523v-452.93zM100.976 581.093l366.214-261.096h162.762l366.19 261.096-447.571 298.38-447.595-298.38z" />
<glyph unicode="&#xe913;" glyph-name="error" horiz-adv-x="1195" d="M608 950.315c24.792-1.597 48.976-8.757 70.724-21 24.86-13.999 45.67-34.161 60.444-58.5h-0.057c0.085-0.135 0.193-0.253 0.279-0.389l402.108-671.332c14.484-25.094 22.141-53.561 22.226-82.5 0.074-28.928-7.361-57.469-21.726-82.665-14.347-25.168-35.066-46.103-60.001-60.78-24.951-14.683-53.362-22.619-82.33-22.943h-804.723c-28.97 0.324-57.345 8.277-82.278 22.943-24.941 14.683-45.654 35.624-60 60.78-14.341 25.156-21.855 53.697-21.778 82.665 0.083 28.985 7.806 57.435 22.278 82.5l0.556 1.001 401.556 670.331c0.069 0.117 0.096 0.272 0.167 0.389 14.79 24.372 35.662 44.516 60.5 58.5 24.847 13.982 52.889 21.333 81.388 21.333l10.667-0.333zM591.332 807.648c-1.963-0.515-3.88-1.272-5.666-2.278-3.55-2.005-6.508-4.923-8.607-8.389l-0.057 0.056-400.778-668.997c-2.008-3.482-3.097-7.589-3.111-11.839-0.006-4.153 1.091-8.22 3.111-11.776 2.019-3.544 4.991-6.593 8.611-8.721 3.614-2.122 7.666-3.231 11.723-3.277h801.502c4.090 0.046 8.186 1.166 11.776 3.277 3.55 2.088 6.497 5.114 8.556 8.721 2.020 3.55 3.118 7.617 3.112 11.776l-0.836 6.059c-0.535 1.98-1.291 3.914-2.332 5.723l-0.165 0.279-400.060 667.831-2.554 3.666c-1.832 2.226-4.039 4.162-6.61 5.611-3.578 2.014-7.578 3.053-11.611 3.056l-6.002-0.778zM605.11 281.702c35.823-3.652 63.824-33.9 63.835-70.719 0-36.83-28.006-67.066-63.835-70.724l-7.276-0.387h-0.501c-39.273 0-71.111 31.835-71.111 71.111 0.010 39.265 31.844 71.111 71.111 71.111h0.501l7.276-0.393zM597.333 661.315c39.276 0 71.111-31.838 71.111-71.111v-189.611c-0.011-39.263-31.841-71.109-71.111-71.109-39.266 0-71.1 31.846-71.111 71.109v189.611c0 39.273 31.838 71.111 71.111 71.111z" />
<glyph unicode="&#xe914;" glyph-name="eye" horiz-adv-x="1216" d="M608.017 696c65.769-0.004 128.873-26.118 175.375-72.625 46.509-46.509 72.627-109.607 72.627-175.375 0-65.766-26.118-128.87-72.627-175.373-46.502-46.515-109.613-72.621-175.375-72.627-65.768 0-128.865 26.118-175.375 72.627-46.51 46.502-72.625 109.601-72.625 175.373s26.116 128.866 72.625 175.375c46.508 46.504 109.606 72.625 175.375 72.625zM608.017 600c-40.309 0-78.995-16-107.5-44.5-28.506-28.506-44.5-67.187-44.5-107.5s15.997-78.999 44.5-107.5c28.503-28.5 67.19-44.5 107.5-44.5 40.31 0.006 79.004 16 107.497 44.5 28.499 28.499 44.506 67.189 44.506 107.5s-16 78.997-44.506 107.5c-28.493 28.499-67.187 44.495-107.497 44.5zM608.017 909.375c218.473-0.006 370.607-113.433 466.185-223.187 47.789-54.872 82.176-109.554 104.627-150.5 11.251-20.516 19.603-37.757 25.19-50 2.79-6.124 4.922-11.043 6.374-14.5 0.717-1.715 1.286-3.078 1.683-4.062 0.192-0.477 0.326-0.893 0.442-1.188l0.25-0.5c0-0.024-0.538-0.324-44.749-17.437 43.923-17.005 44.742-17.348 44.749-17.375l-0.25-0.563c-0.122-0.296-0.243-0.705-0.442-1.188-0.39-0.982-0.966-2.347-1.683-4.062-1.453-3.457-3.584-8.378-6.374-14.5-5.587-12.241-13.939-29.482-25.19-50-22.458-40.94-56.838-95.64-104.627-150.501-95.584-109.728-247.725-223.117-466.185-223.123-218.465 0-370.601 113.395-466.188 223.123-47.789 54.861-82.169 109.562-104.625 150.501-11.253 20.518-19.601 37.758-25.188 50-2.793 6.122-4.925 11.043-6.375 14.5-0.719 1.715-1.292 3.079-1.688 4.062-0.194 0.483-0.321 0.891-0.438 1.188l-0.25 0.5c0.176 0.099 2.953 1.256 44.75 17.437-41.781 16.172-44.572 17.283-44.75 17.375l0.25 0.563c0.116 0.296 0.246 0.712 0.438 1.188 0.397 0.984 0.969 2.348 1.688 4.062 1.45 3.459 3.582 8.378 6.375 14.5 5.586 12.244 13.938 29.484 25.188 50 22.455 40.947 56.841 95.629 104.625 150.5 95.584 109.754 247.713 223.187 466.188 223.187zM608.017 813.375c-181.508 0-309.396-93.26-393.812-190.188-42.196-48.452-72.83-97.132-92.875-133.687-9.314-16.986-16.271-31.254-21-41.5 4.73-10.244 11.684-24.513 21-41.5 20.044-36.546 50.68-85.185 92.875-133.623 84.415-96.909 212.293-190.189 393.812-190.189 181.513 0.006 309.398 93.28 393.814 190.189 42.189 48.439 72.832 97.078 92.877 133.623 9.306 16.973 16.205 31.258 20.934 41.5-4.73 10.243-11.629 24.526-20.934 41.5-20.045 36.554-50.682 85.235-92.877 133.687-84.416 96.927-212.307 190.182-393.814 190.188zM48.017 448l-44.75-17.313c-4.31 11.144-4.313 23.544 0 34.687l44.75-17.375zM1212.768 465.313c4.307-11.14 4.307-23.547 0-34.687l-44.749 17.375 44.749 17.313z" />
<glyph unicode="&#xe915;" glyph-name="fb" horiz-adv-x="569" d="M426.542 789.973h93.48v162.816c-16.128 2.219-71.595 7.211-136.192 7.211-134.783 0-227.114-84.779-227.114-240.597v-143.403h-148.736v-182.016h148.736v-457.984h182.36v457.941h142.717l22.659 182.016h-165.422v125.397c0.046 52.608 14.211 88.619 87.512 88.619z" />
<glyph unicode="&#xe916;" glyph-name="filter" horiz-adv-x="1240" d="M943.158 461.474c141.387 0 256-114.613 256-256s-114.613-256-256-256c-127.628 0-233.407 93.405-252.788 215.579h-447.844c-22.324 0-40.421 18.098-40.421 40.421s18.097 40.421 40.421 40.421h447.844c19.381 122.174 125.16 215.579 252.788 215.579zM943.158 380.632c-96.736 0-175.158-78.422-175.158-175.158s78.422-175.158 175.158-175.158c96.736 0 175.158 78.422 175.158 175.158s-78.422 175.158-175.158 175.158zM296.421 946.526c127.629 0 233.407-93.403 252.788-215.579h447.844c22.323 0 40.421-18.097 40.421-40.421s-18.098-40.421-40.421-40.421h-447.844c-19.381-122.176-125.159-215.579-252.788-215.579-141.385 0-256 114.615-256 256s114.615 256 256 256zM296.421 865.684c-96.737 0-175.158-78.421-175.158-175.158s78.421-175.158 175.158-175.158c96.737 0 175.158 78.421 175.158 175.158s-78.421 175.158-175.158 175.158z" />
<glyph unicode="&#xe917;" glyph-name="fish-2" d="M701.333 952.945c18.833 11.538 41.523 6.082 49.792 3.458 46.848-6.322 53.205-39.912 56.29-56.208 0.235-1.268 0.512-2.77 0.794-4.125 23.945 0.819 44.749-6.563 59.959-21.75 16.107-16.139 23.723-38.481 21.457-62.959-1.079-11.457 2.129-21.583 8.998-28.458 6.899-6.865 16.977-10.138 28.459-9 33.924 2.883 42.94-27.081 47.876-43.292 4.851-15.786 8.448-25.706 18.167-30.042 14.396-6.351 24.947-19.667 28.207-35.5 3.17-15.408-1.088-31.295-11.418-42.458l-0.081-0.083c-6.899-7.363-15.701-12.035-25.502-13.542l-1.707-0.292-136.166 1.292v-218.75c0.021-20.774-1.865-41.242-4.587-61.5 94.302-17.353 149.696-126.362 152.252-131.541l8.124-16.333-14.75-10.709c-76.817-55.667-154.129-70.579-214.916-70.583-10.556 0-20.395 0.563-29.875 1.335-9.289-11.23-19.153-22.114-29.581-32.542-85.982-86.003-200.273-133.376-321.876-133.376h-385.25v388.25c0 131.482 56.784 249.706 146.666 332.416-14.735 34.295-16.807 68.7-6.042 102.542 26.617 83.727 123.156 132.427 127.25 134.458l16.333 8.042 10.708-14.75c27.188-37.54 46.243-78.559 57.75-121.917 32.1 7.263 65.328 11.415 99.582 11.417h220.045l0.499 134.959c2.351 24.672 13.555 36.003 22.541 41.542zM723.917 916.237c-0.516-0.305-1.673-2.432-2.125-7.042l-0.542-175.833h-262.959c-38.111 0-74.864-5.638-109.874-15.417-14.052-3.906-27.787-8.53-41.167-13.833-0.305-0.125-0.638-0.208-0.958-0.333-40.599-16.186-77.981-38.724-111.667-67.167-88.852-75.133-145.542-187.229-145.542-312.418v-345.122h342.167c110.079 0 213.614 42.863 291.459 120.708 8.721 8.713 16.828 17.86 24.666 27.209l8.333 10.667c34.615 44.215 59.836 95.369 74.001 149.291 0.708 2.752 1.378 5.513 2.039 8.29 1.557 6.447 3.068 12.949 4.292 19.46l0.542 3.042c4.288 24.021 6.793 48.533 6.793 73.455v262.252l174.916-1.583c1.297 1.399 1.028 3.61 0.832 4.5-0.341 1.741-1.455 3.934-3.499 4.833-28.382 12.655-36.506 39.255-41.873 56.833-1.25 4.039-2.974 9.667-4.42 12.792-23.812-1.524-45.517 6-61.163 21.625-16.111 16.116-23.727 38.479-21.461 62.959 1.075 11.45-2.133 21.571-8.998 28.458-6.921 6.875-17.054 10.078-28.501 9-36.002-3.247-41.924 27.67-44.164 39.333-2.756 14.774-3.712 19.729-21.167 21.667l-5.376 1.333c-5.001 1.826-12.45 2.376-14.583 1.042zM151.917 423.488c190.123 0 344.83-154.679 344.834-344.794h-43.127c-0.004 166.366-135.334 301.709-301.707 301.709v43.085zM833.293 284.028c-12.011-49.873-32.094-97.254-60.126-140.331 49.306 0.107 110.848 11.409 173.043 51.456-17.263 27.695-57.591 82.219-111.919 92.373-0.273-1.182-0.695-2.317-0.998-3.499zM222.083 493.611c190.122 0 344.829-154.654 344.833-344.789h-43.123c-0.004 166.362-135.337 301.709-301.71 301.709v43.081zM106.25 264.777c25.188 25.173 66.182 25.173 91.417 0 12.207-12.215 18.917-28.433 18.917-45.705 0-17.263-6.727-33.515-18.917-45.709-12.597-12.608-29.16-18.914-45.708-18.918-16.544 0-33.1 6.31-45.708 18.918-12.195 12.194-18.958 28.442-18.958 45.709 0 17.276 6.765 33.51 18.958 45.705zM151.958 240.61c-5.514 0-11.047-2.082-15.25-6.289-4.078-4.070-6.333-9.476-6.333-15.249 0.001-5.76 2.279-11.183 6.333-15.253 8.417-8.418 22.030-8.41 30.458 0 4.070 4.096 6.333 9.519 6.333 15.253 0 5.773-2.255 11.162-6.333 15.206-4.201 4.198-9.696 6.332-15.209 6.332zM289.083 560.653c190.149 0 344.832-154.71 344.832-344.832h-43.123c0 166.374-135.334 301.709-301.709 301.709v43.124zM359.25 630.778c190.139 0 344.827-154.67 344.835-344.792h-43.127c-0.004 166.37-135.334 301.709-301.708 301.709v43.084zM981.248 648.57l12.834-11.333-12.834 11.916v-0.583zM276.958 845.737c-25.584-15.959-73.996-51.545-89.25-99.75-6.272-19.776-6.354-39.521-0.125-59.75 2.975 2.24 6.19 4.145 9.25 6.292 5.117 3.658 10.246 7.261 15.542 10.708 5.842 3.788 11.828 7.319 17.833 10.833 5.877 3.426 11.675 6.932 17.708 10.125 4.325 2.28 8.839 4.286 13.25 6.417 18.23 8.881 36.987 16.762 56.459 23.167-8.578 32.302-22.162 63.125-40.667 91.958z" />
<glyph unicode="&#xe918;" glyph-name="food" horiz-adv-x="1117" d="M556.362 687.728c51.335 0 93.091-41.804 93.091-93.137 0-2.951-0.493-5.942-0.819-8.909 196.613-38.131 351.088-195.562 384.819-393.683 38.907-22.021 81.445-54.416 81.455-90.773 0-94.669-288.81-158.273-558.545-158.273-269.743 0-558.544 63.604-558.544 158.273 0.011 36.357 42.558 68.752 81.454 90.773 33.742 198.121 188.207 355.552 384.818 393.683-0.331 2.967-0.816 5.958-0.818 8.909 0 51.332 41.76 93.136 93.090 93.137zM1039.365 141.41c0.638-10.217 1.089-20.522 1.089-30.911v-14.634l-14.317-3.454c-153.665-36.883-311.729-55.319-469.774-55.319s-316.135 18.446-469.817 55.319l-14.273 3.454v14.634c0 10.389 0.46 20.708 1.091 30.911 0.075 1.057 0.061 2.085 0.136 3.137-29.588-20.485-38.443-36.18-38.454-43.32 0-41.533 203.020-121.046 521.317-121.046 318.301 0 521.328 79.514 521.318 121.046-0.009 7.14-8.867 22.835-38.456 43.32 0.079-1.052 0.070-2.081 0.14-3.137zM587.092 556.183c-20.438 1.381-41.011 1.381-61.454 0-2.057-0.145-4.119-0.285-6.181-0.455-10.091-0.818-20.145-1.918-30.138-3.409-193.958-29.301-347.352-183.777-375.182-378.23-0.86-5.939-1.569-11.944-2.182-17.953-0.212-2.057-0.449-4.115-0.636-6.181-0.724-8.243-1.264-16.524-1.545-24.771 292.485-67.789 600.697-67.789 893.184 0-0.265 8.248-0.777 16.528-1.503 24.771-0.186 2.067-0.475 4.124-0.68 6.181-0.614 5.995-1.285 11.985-2.136 17.953-27.839 194.453-181.262 348.912-375.226 378.23-9.989 1.49-20.052 2.591-30.138 3.409-2.062 0.17-4.119 0.31-6.181 0.455zM354.364 466.139c8.843 5.227 20.249 2.327 25.5-6.502 5.233-8.844 2.293-20.322-6.545-25.544-87.744-51.982-151.7-146.376-171.046-252.453-1.643-8.965-9.454-15.272-18.273-15.276-1.091 0-2.221 0.098-3.363 0.321-10.125 1.848-16.813 11.548-14.955 21.681 21.268 116.541 91.79 220.383 188.682 277.774zM556.362 520.137c10.296 0 18.632-8.344 18.637-18.636 0-10.279-8.355-18.592-18.637-18.592h-0.228c-27.857 0-55.547-3.058-82.316-9.090-1.382-0.298-2.783-0.456-4.138-0.456-8.5 0.009-16.153 5.86-18.136 14.504-2.25 10.030 4.051 20.021 14.091 22.271 29.44 6.628 59.876 9.999 90.456 10h0.27zM556.362 650.456c-30.79-0.001-55.864-25.072-55.864-55.864 0-1.041 0.061-2.107 0.14-3.182 0.866 0.11 1.745 0.134 2.634 0.228 6.405 0.689 12.847 1.185 19.316 1.636 2.378 0.162 4.762 0.418 7.14 0.546 8.825 0.485 17.725 0.773 26.68 0.773 8.941 0 17.813-0.287 26.638-0.773 2.378-0.128 4.757-0.384 7.135-0.546 6.47-0.451 12.921-0.93 19.316-1.636 0.847-0.093 1.722-0.135 2.593-0.228 0.074 1.075 0.135 2.124 0.135 3.182 0 30.793-25.069 55.864-55.864 55.864zM339.455 834.819c7.278 7.287 19.085 7.287 26.364 0 16.21-16.192 25.136-37.742 25.136-60.637-0.006-22.885-8.948-44.396-25.136-60.591-18.895-18.912-18.895-49.679 0-68.591 7.265-7.274 7.261-19.042 0-26.318-3.631-3.631-8.418-5.455-13.182-5.455-4.771 0.001-9.552 1.825-13.182 5.455-33.4 33.415-33.401 87.813 0 121.228 9.179 9.162 14.273 21.355 14.273 34.318-0.004 12.949-5.114 25.115-14.273 34.273-7.269 7.266-7.264 19.040 0 26.318zM749.047 834.819c7.275 7.287 19.084 7.287 26.363 0 16.207-16.192 25.135-37.742 25.135-60.637-0.005-22.885-8.955-44.396-25.135-60.591-18.897-18.912-18.897-49.679 0-68.591 7.266-7.274 7.261-19.042 0-26.318-3.631-3.629-8.411-5.453-13.182-5.455-4.766 0-9.551 1.824-13.182 5.455-33.401 33.415-33.401 87.813 0 121.228 9.179 9.162 14.224 21.355 14.224 34.318 0 12.949-5.069 25.115-14.224 34.273-7.27 7.266-7.266 19.040 0 26.318zM544.275 946.547c7.27 7.272 19.042 7.282 26.317 0 16.216-16.193 25.135-37.747 25.135-60.636 0-22.887-8.946-44.403-25.135-60.591-18.897-18.921-18.897-49.679 0-68.591 7.284-7.278 7.284-19.085 0-26.363-3.631-3.631-8.42-5.455-13.182-5.455s-9.551 1.825-13.182 5.455c-33.42 33.418-33.382 87.855 0.047 121.273 9.165 9.157 14.224 21.33 14.224 34.273 0 12.952-5.073 25.157-14.224 34.318-7.289 7.278-7.289 19.040 0 26.318z" />
<glyph unicode="&#xe919;" glyph-name="google-play" horiz-adv-x="942" d="M555 438.039l-492.84-491.598c-24.969 13.074-41.68 36.872-41.68 67.838v847.361c0 30.966 16.711 54.766 41.68 67.84l492.84-491.441zM711.999 280.76l-539.199-309.559 423.799 425.001 115.401-115.442zM878.719 496.239c36.856-27.476 36.864-89.281 2.322-116.761l-115.401-65.479-126.202 123.879 126.202 123.841 113.078-65.482zM711.999 594.96l-115.401-115.4-423.799 424.96 539.199-309.56z" />
<glyph unicode="&#xe91a;" glyph-name="heart" horiz-adv-x="1221" d="M610.442 849.598c173.722 184.881 441.927 118.396 538.344-70.769 50.979-100.027 52.807-231.174-25.076-373.001-77.485-141.091-233.578-292.781-498.96-439.461l-14.308-7.885-14.308 7.885c-265.377 146.684-421.482 298.37-498.961 439.461-77.879 141.832-76.019 272.975-25.039 373.001 96.42 189.162 364.606 255.651 538.308 70.769zM1096.133 752.021c-82.976 162.777-319.496 214.963-462.537 34.077l-23.154-29.308-23.154 29.308c-143.021 180.883-379.518 128.699-462.499-34.077-40.91-80.259-45.644-190.609 24.154-317.731 68.909-125.495 210.717-267.221 461.5-408.155 250.793 140.934 392.586 282.659 461.501 408.155 69.805 127.126 65.103 237.471 24.19 317.731z" />
<glyph unicode="&#xe91b;" glyph-name="home" d="M491.421 940.895c14.774 8.752 33.876 7.3 47.211-4.368l431.156-377.263c8.769-7.675 13.792-18.768 13.792-30.421v-538.947c0-22.323-18.098-40.421-40.421-40.421h-269.474c-22.323 0-40.421 18.098-40.421 40.421v215.579c0 32.159-12.784 62.998-35.527 85.736-22.738 22.744-53.577 35.527-85.736 35.527-32.162 0-62.994-12.784-85.737-35.527-22.741-22.738-35.526-53.577-35.526-85.736v-215.579c0-22.323-18.097-40.421-40.421-40.421h-269.474c-22.324 0-40.421 18.098-40.421 40.421v538.947c0 11.653 5.022 22.746 13.79 30.421l431.158 377.263 6.052 4.368zM714.105 30.316h188.632v480.211l-390.737 341.895-390.737-341.895v-480.211h188.632v175.158c0 53.598 21.308 104.992 59.21 142.897 37.901 37.899 89.289 59.209 142.895 59.209 53.598 0 104.992-21.31 142.897-59.209 37.899-37.904 59.209-89.298 59.209-142.897v-175.158z" />
<glyph unicode="&#xe91c;" glyph-name="ice-cream" horiz-adv-x="597" d="M307.667 960c137.654 0 249.684-112.011 249.667-249.667v-510.709c0-47.945-39.014-86.959-86.959-86.959h-114.374v-123.708c0-29.193-23.764-52.958-52.958-52.958h-17.667c-29.199 0.004-52.958 23.765-52.958 52.958v123.708h-106.792c-47.951 0-86.956 38.985-86.959 86.916v510.752c0 137.656 112.011 249.667 249.667 249.667h19.334zM267.75-10.999c0-9.741 7.924-17.668 17.667-17.668h17.625c9.742 0 17.667 7.927 17.667 17.668v123.541h-52.958v-123.541zM288.333 924.708c-118.193-0.011-214.333-96.179-214.333-214.375v-510.709c0-28.459 23.173-51.665 51.625-51.665h344.792c26.671 0.009 48.678 20.386 51.332 46.374l0.294 5.291v510.709c0 118.199-96.154 214.369-214.336 214.375h-19.375zM276.5 341.124c9.741 0 17.667-7.902 17.667-17.664v-48.337c0-36.39-29.652-66.031-66.042-66.039-36.399 0-66.042 29.619-66.042 66.039v48.337c0 9.762 7.901 17.664 17.667 17.664 9.761-0.004 17.667-7.902 17.667-17.664v-48.337c0-16.943 13.763-30.75 30.708-30.75 16.937 0.013 30.708 13.811 30.708 30.75v48.337c0 9.762 7.901 17.664 17.667 17.664zM444.459 583.833c9.762 0 17.664-7.869 17.668-17.625v-87.083c0-36.395-29.611-66.031-66.002-66.044-36.399 0-66.042 29.628-66.042 66.044v87.083c0.003 9.755 7.903 17.625 17.667 17.625 9.751-0.006 17.622-7.873 17.625-17.625v-87.083c0-16.947 13.804-30.707 30.75-30.707 16.937 0.009 30.708 13.769 30.708 30.707v87.083c0.004 9.75 7.876 17.617 17.626 17.625zM269 739.333c9.758 0 17.667-7.901 17.667-17.667v-48.333c0-36.393-29.594-66.032-66-66.042-36.422 0-66.057 29.62-66.042 66.042v48.333c0 9.766 7.909 17.667 17.667 17.667 9.757-0.009 17.625-7.907 17.625-17.667v-48.333c0-16.945 13.797-30.75 30.75-30.75 16.937 0.010 30.708 13.811 30.708 30.75v48.333c0 9.76 7.866 17.658 17.625 17.667z" />
<glyph unicode="&#xe91d;" glyph-name="inst" horiz-adv-x="1081" d="M542.354 710.944c145.228-0.006 263.056-117.828 263.056-263.055 0-145.229-117.828-263.051-263.056-263.057-145.223 0-263.053 117.828-263.055 263.057 0 145.232 117.832 263.055 263.055 263.055zM542.354 618.556c-94.214 0-170.667-76.445-170.667-170.667 0.002-94.217 76.454-170.613 170.667-170.613 94.215 0.006 170.611 76.396 170.611 170.613s-76.396 170.66-170.611 170.667zM815.798 782.778c33.923-0.003 61.389-27.526 61.389-61.445 0-33.908-27.472-61.386-61.389-61.389-33.911 0-61.44 27.478-61.446 61.389 0 33.921 27.534 61.445 61.446 61.445zM542.354 960c139.010 0 156.418-0.621 211.224-3.222 54.403-2.399 91.62-11.176 124.223-23.778 33.997-12.797 65.007-33.003 90.607-59 26.209-25.606 46.217-56.429 59.221-90.833 12.601-32.412 21.436-69.814 23.836-124.222 2.395-54.612 2.554-72.028 2.554-211.056 0-139.017-0.603-156.442-2.998-211.055-2.406-54.397-11.184-91.62-23.78-124.223-26.607-68.796-81.027-123.17-149.834-149.777-32.404-12.607-69.814-21.436-124.223-23.836-54.608-2.406-72.027-2.998-211.054-2.998-138.991 0-156.418 0.597-211 2.998-54.416 2.401-91.67 11.23-124.278 23.836-33.995 12.8-65.013 33.001-90.611 58.999-25.991 25.594-46.166 56.394-59.166 90.778-12.602 32.41-21.433 69.825-23.834 124.223-2.399 54.613-3 72.038-3 211.055 0 139.027 0.62 156.462 3.222 211.277 2.4 54.397 11.176 91.619 23.778 124.223 12.807 33.999 33 65.009 58.999 90.611 25.606 26.208 56.421 46.22 90.833 59.222 32.404 12.595 69.817 21.379 124.223 23.778 54.612 2.399 72.029 3 211.056 3zM542.743 867c-136.615 0-152.829-0.601-206.834-3-49.783-2.202-76.996-10.612-95-17.611-22.207-8.197-42.237-21.219-58.833-38.223-17.205-16.408-30.184-36.627-38.389-58.833-7.001-18.004-15.416-45.003-17.611-95-2.407-53.803-3-70.209-3-206.833 0-136.619 0.593-152.833 3-206.832 2.196-49.806 10.61-77.050 17.611-95.056 8.203-22.181 21.177-42.183 38.167-58.778 16.402-17.004 36.634-30.015 58.833-38.224 18.002-6.997 45.005-15.417 95-17.613 53.812-2.406 70.228-2.998 206.833-2.998 136.607 0 152.843 0.592 206.831 2.998 49.818 2.196 77.050 10.615 95.056 17.613 44.607 17.209 80.014 52.611 97.223 97.223 6.997 18.005 15.411 45.045 17.613 95.056 2.401 53.988 2.998 70.007 2.998 206.61 0 136.623-0.597 152.827-2.998 206.833-2.202 49.793-10.615 76.996-17.613 95-8.209 22.206-21.22 42.229-38.224 58.833-16.395 16.999-36.585 30.025-58.778 38.223-18.005 7.001-45.045 15.408-95.056 17.611-53.806 2.398-70.007 3-206.83 3z" />
<glyph unicode="&#xe91e;" glyph-name="leaf" horiz-adv-x="1090" d="M1058.155 958.777c6.686-0.279 12.489-4.675 14.58-11.032 2.081-6.363 0-13.364-5.226-17.548-82.974-66.381-157.016-154.835-137.13-350.84 11.155-109.954 0.756-213.623-30.063-299.771-35.989-100.596-98.301-176.901-185.225-226.776-93.835-53.836-184.683-76.255-260.486-76.258-66.96 0-122.209 17.497-157.419 46.225-116.17-81.131-257.973-85.801-264.193-85.966-0.138-0.003-0.281 0-0.419 0-8.668 0-15.831 6.9-16.065 15.614-0.231 8.853 6.762 16.239 15.613 16.483 1.391 0.040 134.396 4.542 241.871 76.869-123.413 138.798-135.55 392.162 79.679 624.614 24.193 26.127 50.751 51.085 78.901 74.129 6.857 5.6 16.969 4.596 22.581-2.258 5.615-6.857 4.595-16.964-2.256-22.581-27.014-22.109-52.482-46.046-75.677-71.097-204.036-220.366-192.634-458.347-75.84-585.195 38.335 22.601 72.279 59.736 104.063 107.226-13.286 26.119-50.189 107.276-50.193 202.709 0 8.863 7.171 16.060 16.034 16.067 8.863 0 16.064-7.201 16.064-16.067 0.003-71.951 23.473-136.569 38.453-170.483 29.092 48.666 56.726 105.7 84.741 167.612-14.95 22.066-51.801 86.746-44.29 179.388 0.72 8.83 8.486 15.406 17.289 14.709 8.839-0.717 15.423-8.489 14.709-17.322-5.222-64.476 13.831-113.77 28.292-141.001 9.269 20.903 18.63 42.245 28.127 63.937 22.366 51.084 45.482 103.847 70.194 156.613-17.93 36.493-18.515 95.702-18.515 102.806 0.003 8.861 7.201 16.031 16.064 16.032 8.863 0 16.060-7.169 16.064-16.032 0.010-12.1 1.447-39.247 6.712-62.871 40.068 70.808 112.584 158.883 242.354 227.774 19.192 10.19 37.634 18.892 54.837 26.322-41.961-5.207-86.221-13.505-129.031-24.451-114.566-29.298-221.947-77.368-310.516-139-7.28-5.057-17.296-3.273-22.356 4-5.061 7.277-3.244 17.29 4.033 22.355 91.691 63.796 202.66 113.503 320.902 143.742 127.016 32.477 219.057 32.724 252.743 31.323zM993.865 906.712c-26.195-9.55-58.117-22.916-92.127-41.032-78.468-41.796-184.555-118.267-244.356-245.163-9.804-20.797-19.357-41.627-28.708-62.385 3.901 0.33 8.218 0.859 12.935 1.678 19.473 3.366 49.555 12.44 82.224 36.643 7.125 5.279 17.173 3.799 22.452-3.323 5.275-7.122 3.766-17.177-3.356-22.449-52.947-39.229-101.125-45.129-125.321-45.132-1.222 0-2.385 0.007-3.485 0.033-10.2-22.977-20.189-45.803-30.033-68.291-19.076-43.566-37.587-85.818-56.095-125.869 30.485 2.553 85.233 13.213 136.968 54.45 6.93 5.526 17.022 4.387 22.548-2.547 5.523-6.93 4.407-17.022-2.517-22.548-70.448-56.161-144.569-62.19-172.481-62.259-28.365-59.227-57.1-112.726-88.325-157.257 49.264 1.695 144.695 10.28 203.938 49.773 7.373 4.909 17.339 2.92 22.257-4.453 4.902-7.373 2.917-17.342-4.453-22.257-38.459-25.636-93.125-42.737-162.449-50.84-34.648-4.043-64.013-4.707-79.776-4.707-1.51 0-2.877-0.010-4.129 0-22.739-27.684-46.936-50.612-73.29-67.713 31.673-21.57 78.869-33.24 133.452-32.385 53.39 0.813 138.257 13.963 239.355 71.967 80.12 45.974 137.659 116.561 171.001 209.775 29.217 81.676 39.028 180.482 28.355 285.709-9.698 95.6 0.941 174.198 32.514 240.29 17.438 36.497 39.89 66.037 62.903 90.29z" />
<glyph unicode="&#xe91f;" glyph-name="leaf2" horiz-adv-x="947" d="M895.757 946.203c-1.364 5.012-4.759 9.23-9.367 11.63-9.093 4.812-20.367 1.341-25.18-7.753l-0.036-0.069c0-0.515-94.382-183.617-384.113-215.523-37.793-4.032-74.737-13.892-109.512-29.231-62.246-27.062-113.654-74.159-146.051-133.801-30.243-56.023-42.769-119.908-35.92-183.204 5.046-46.141 20.456-90.547 45.082-129.892-51.463-36.948-214.701-164.677-229.419-301.773-1.081-10.23 6.34-19.402 16.571-20.483 10.233-1.080 19.401 6.341 20.482 16.571 13.483 122.378 166.634 241.050 214.39 275.425 57.329-70.4 143.168-110.129 235.284-116.613 62.001-4.001 124.073 6.572 181.251 30.876 62.067 26.043 116.884 66.767 159.739 118.674 110.436 133.801 163.031 358.689 66.798 685.165zM263.391 276.785c-7.101 11.185-13.363 22.881-18.734 34.995-11.3 25.556-18.591 52.703-21.614 80.486-6.303 55.747 4.462 112.095 30.879 161.59 28.552 52.475 73.841 93.888 128.655 117.642 31.337 13.645 64.596 22.359 98.601 25.833 191.232 20.586 303.729 105.704 361.779 167.459-34.107-112.288-92.828-215.556-171.884-302.289l-11.323 114.040c-0.576 10.273-9.372 18.132-19.643 17.556s-18.132-9.372-17.556-19.643c0.028-0.507 0.077-1.014 0.146-1.516l14.513-146.565c-86.559-87.793-206.876-176-373.819-249.59zM800.138 284.915v-0.102c-38.935-47.404-88.809-84.636-145.329-108.483-51.973-21.965-108.383-31.411-164.677-27.584-78.369 3.971-151.91 39.058-204.306 97.469 61.399 27.169 120.768 58.711 177.649 94.382l163.546-30.879c10.163-1.592 19.694 5.358 21.286 15.521 1.536 9.805-4.882 19.092-14.597 21.12l-125.67 23.777c58.028 39.852 112.041 85.248 161.283 135.549 0.904 0.778 1.731 1.638 2.47 2.573 129.889 135.242 185.16 269.044 208.215 351.384 63.608-271.307 14.925-460.071-79.869-574.728z" />
<glyph unicode="&#xe920;" glyph-name="link" horiz-adv-x="1769" d="M496.477 758.303c-82.297 0-161.224-32.693-219.417-90.886s-90.886-137.119-90.886-219.417c0-82.302 32.693-161.224 90.886-219.415s137.12-90.885 219.417-90.885h155.152c20.574 0 40.306-8.173 54.854-22.723s22.722-34.285 22.722-54.858c0-20.573-8.173-40.299-22.722-54.849s-34.28-22.723-54.854-22.723h-155.152c-123.446 0-241.836 49.040-329.126 136.332-87.289 87.282-136.329 205.675-136.329 329.123 0 123.446 49.039 241.836 136.329 329.126s205.68 136.329 329.126 136.329h155.152c20.574 0 40.306-8.173 54.854-22.722s22.722-34.28 22.722-54.854c0-20.575-8.173-40.307-22.722-54.855s-34.28-22.722-54.854-22.722h-155.152zM1039.509 835.879c0 20.574 8.173 40.306 22.723 54.854 14.541 14.548 34.276 22.722 54.849 22.722h155.155c123.448 0 241.832-49.038 329.123-136.329s136.332-205.68 136.332-329.126c0-123.448-49.040-241.841-136.332-329.123-87.291-87.291-205.675-136.332-329.123-136.332h-155.155c-20.573 0-40.308 8.173-54.849 22.723-14.55 14.55-22.723 34.276-22.723 54.849s8.173 40.308 22.723 54.858c14.541 14.55 34.276 22.723 54.849 22.723h155.155c82.292 0 161.224 32.694 219.415 90.885s90.885 137.114 90.885 219.415c0 82.298-32.694 161.224-90.885 219.417s-137.123 90.886-219.415 90.886h-155.155c-20.573 0-40.308 8.173-54.849 22.722-14.55 14.548-22.723 34.28-22.723 54.855zM496.477 448c0 20.573 8.173 40.308 22.722 54.855s34.28 22.721 54.854 22.721h620.611c20.573 0 40.299-8.172 54.849-22.721 14.55-14.546 22.723-34.282 22.723-54.855s-8.173-40.308-22.723-54.858c-14.55-14.541-34.276-22.714-54.849-22.714h-620.611c-20.574 0-40.306 8.173-54.854 22.714-14.548 14.55-22.722 34.285-22.722 54.858z" />
<glyph unicode="&#xe921;" glyph-name="logo" horiz-adv-x="1090" d="M1049.597 833.064c-127.924 0-308.647-10.703-401.002-103.010-39.986-39.986-59.954-105.169-54.771-178.95 0.674-9.745 7.155-18.046 16.467-21.121 9.262-3.022 19.439-0.192 25.775 7.247 51.362 60.436 115.203 108.868 189.893 143.957 6.336 3.024 13.824 3.265 20.642 0.864 5.999-2.16 10.702-6.239 13.15-11.473 5.087-10.752 3.455-24.913-13.441-32.881-0.958-0.479-1.823-1.103-2.781-1.536-0.337-0.145-0.72-0.096-1.007-0.241-184.036-86.498-274.518-237.413-315.61-392.602-29.954 194.309-93.217 308.696-152.979 378.923-43.246 56.063-85.778 85.778-110.353 102.576-4.561 3.121-18.336 12.528-24.048 18.241-9.36 9.36-9.36 24.577 0 33.938 9.36 9.313 24.625 9.313 35.040-1.055 2.545-2.257 6.624-5.137 11.808-8.593l4.273-2.88c34.752-23.808 99.459-68.017 156.866-163.202 5.137-8.496 15.073-13.058 24.721-11.234 9.794 1.728 17.471 9.266 19.393 19.010 12.529 63.984 6.914 158.932-50.159 216.005-92.355 92.259-273.078 102.963-400.953 102.963-13.251 0.002-24.004-10.751-24.004-23.999 0-127.922 10.704-308.647 103.010-401.002 38.496-38.496 97.875-55.778 156.867-55.778 48.145 0 95.329 12.050 131.476 32.93 49.294-102.146 88.659-254.741 88.659-488.171 0-13.249 10.752-24.001 24.001-24.001 13.246 0 24.001 10.752 24.001 24.001 0 130.226 22.32 286.519 105.313 415.163 33.263-32.5 90.532-53.093 153.986-55.012 3.168-0.096 6.289-0.142 9.408-0.142 64.466 0 121.443 20.206 157.3 56.112 92.352 92.355 103.008 273.079 103.008 401.004 0.053 13.246-10.653 23.949-23.948 23.949z" />
<glyph unicode="&#xe922;" glyph-name="log-out" horiz-adv-x="1081" d="M938.667-64h-512c-30.176 0-59.116 11.986-80.453 33.326s-33.325 50.278-33.325 80.452v227.556h113.778v-227.556h512v796.444h-512v-227.556h-113.778v227.556c0 30.176 11.987 59.116 33.325 80.453s50.277 33.325 80.453 33.325h512c30.174 0 59.113-11.987 80.452-33.325s33.326-50.277 33.326-80.453v-796.444c0-30.174-11.986-59.113-33.326-80.452s-50.278-33.326-80.452-33.326zM540.444 220.444v170.667h-512v113.778h512v170.667l284.444-227.556-284.444-227.556z" />
<glyph unicode="&#xe923;" glyph-name="map-pin" horiz-adv-x="819" d="M409.6 683.050c84.378 0 153.59-67.274 153.6-151.25-0.005-83.984-69.215-151.302-153.6-151.302s-153.597 67.318-153.6 151.302c0.013 83.976 69.222 151.25 153.6 151.25zM409.6 631.85c-56.991 0-102.387-45.232-102.4-100.050 0.003-54.826 45.403-100.102 102.4-100.102s102.397 45.276 102.4 100.102c-0.013 54.818-45.409 100.050-102.4 100.050zM409.6 934.4c108.477 0 212.603-42.305 289.449-117.75 76.861-75.464 120.146-177.923 120.151-284.85 0-157.083-102.221-299.542-199.199-400.052-49.039-50.816-97.997-92.191-134.651-120.847-18.349-14.346-33.665-25.554-44.45-33.198-5.39-3.825-9.657-6.753-12.6-8.75-1.468-0.998-2.611-1.777-3.4-2.304-0.395-0.261-0.685-0.507-0.9-0.65-0.102-0.067-0.19-0.108-0.25-0.148l-0.1-0.051c-8.513-5.565-19.536-5.565-28.050 0l-0.15 0.051c-0.060 0.041-0.148 0.082-0.25 0.148-0.215 0.143-0.505 0.389-0.9 0.65-0.788 0.527-1.931 1.306-3.4 2.304-2.943 1.997-7.21 4.925-12.6 8.75-10.785 7.644-26.101 18.852-44.45 33.198-36.657 28.657-85.612 70.031-134.65 120.847-96.979 100.511-199.2 242.97-199.2 400.052 0.005 106.928 43.289 209.386 120.15 284.85 76.848 75.445 180.973 117.75 289.45 117.75zM409.6 883.2c-95.203 0-186.422-37.143-253.6-103.1-67.154-65.936-104.795-155.261-104.8-248.3 0-136.147 89.783-266.026 184.8-364.499 46.957-48.666 94.009-88.474 129.35-116.101 17.648-13.798 32.336-24.509 42.55-31.749 0.571-0.404 1.157-0.768 1.7-1.152 0.543 0.384 1.128 0.748 1.7 1.152 10.214 7.24 24.902 17.951 42.55 31.749 35.34 27.628 82.393 67.436 129.349 116.101 95.017 98.473 184.801 228.352 184.801 364.499-0.005 93.039-37.647 182.363-104.801 248.3-67.174 65.957-158.396 103.1-253.599 103.1z" />
<glyph unicode="&#xe924;" glyph-name="meat" d="M805.828 929.751c31.326 25.066 76.557 27.071 110.042 4.875 17.609-11.711 30.374-28.435 36.915-48.334 1.203-3.7 3.797-6.305 7.458-7.5 19.913-6.545 36.638-19.302 48.333-36.875 22.221-33.477 20.245-78.74-4.834-110.083-19.021-23.734-46.985-36.221-77.414-35.042-22.686 0.914-41.988-5.722-55.292-19.042l-159.168-159.167c-4.83-4.834-10.308-8.721-16-12.164h57.207l-19.541-29.167c-4.89-7.283-9.562-13.107-14.75-18.295-79.791-79.778-131.652-176.030-149.999-278.332-10.359-57.852-37.862-110.438-79.539-152.124-54.409-54.417-126.272-84.169-202.96-84.169-2.305 0-4.612 0.030-6.917 0.085-79.204 1.847-152.306 35.221-205.833 93.956-101.258 111.087-97.464 288.457 8.417 395.375 46.069 46.507 107.167 76.117 172.125 83.337 109.226 12.1 205.208 56.722 277.541 129.081 22.281 22.274 52.186 34.781 84.211 35.25l20.663 0.333 115.294 115.292c13.312 13.319 20.066 32.945 18.999 55.25-1.438 30.203 11.324 58.443 35.042 77.458zM589.453 639.292c-11.755-4.086-22.455-10.73-31.377-19.625-78.426-78.444-182.135-126.769-299.915-139.834-57.254-6.353-109.001-31.407-149.625-72.418-92.084-92.979-95.366-247.211-7.333-343.791 46.578-51.102 110.174-80.115 179.042-81.707 69.472-1.459 133.753 24.35 182.501 73.084 36.224 36.254 60.134 81.984 69.124 132.292 18.453 102.852 68.241 199.795 144.457 281.707h-58.415v67.667l-65.835-21.915 37.376 124.54zM425.494 136.418c6.561 7.974 18.414 9.135 26.376 2.539 7.983-6.575 9.122-18.359 2.543-26.33-45.565-55.292-112.393-93.807-183.252-105.626-1.052-0.188-2.055-0.252-3.084-0.252-8.987 0-16.936 6.477-18.458 15.625-1.711 10.197 5.206 19.883 15.417 21.585 62.048 10.364 120.54 44.049 160.458 92.459zM497.412 258.624c10.163-1.818 16.977-11.537 15.164-21.747-4.083-22.903-11.273-45.265-21.333-66.462-3.2-6.741-9.95-10.705-16.956-10.705-2.697 0-5.397 0.614-8 1.83-9.344 4.437-13.355 15.607-8.917 24.96 8.636 18.193 14.784 37.321 18.291 56.96 1.796 10.172 11.354 17.109 21.751 15.164zM205.703 431.501c30.988-0.004 56.204-25.207 56.208-56.209 0-30.989-25.218-56.205-56.208-56.209-30.992 0-56.209 25.216-56.209 56.209 0.004 30.989 25.227 56.209 56.209 56.209zM205.703 394.044c-10.342 0-18.746-8.41-18.75-18.752 0-10.334 8.407-18.748 18.75-18.748s18.75 8.414 18.75 18.748c-0.004 10.338-8.41 18.748-18.75 18.752zM895.117 903.376c-19.733 13.133-47.445 11.906-65.873-2.875-14.234-11.43-21.884-28.335-21.001-46.417 1.566-33.020-9.092-62.694-29.956-83.542l-157.542-157.542-12.002-39.917 46.626 15.584v-56.793c11.294 0.606 21.905 5.179 29.961 13.251l159.164 159.167c20.851 20.897 50.385 31.496 83.584 29.958 17.984-1.008 35.004 6.784 46.417 21.041 14.758 18.43 15.974 46.144 2.876 65.875-6.98 10.525-16.922 18.165-28.749 22.042-1.634 0.539-3.072 1.43-4.625 2.125-2.214-0.999-4.646-1.562-7.211-1.625-16.299-0.315-31.906-7.493-42.833-19.667-3.682-4.113-8.806-6.246-13.918-6.25-4.45 0-8.964 1.575-12.54 4.791-7.693 6.895-8.32 18.763-1.417 26.458 13.171 14.688 30.579 24.862 49.498 29.417-4.194 10.088-11.102 18.701-20.459 24.917z" />
<glyph unicode="&#xe925;" glyph-name="order-history" horiz-adv-x="1088" d="M32-64v447.997h448l-205.888-206.077c35.166-35.962 77.144-64.557 123.482-84.115s96.109-29.696 146.406-29.805c79.312 0.115 156.64 24.787 221.37 70.624 64.723 45.843 113.664 110.598 140.102 185.376h1.152c7.296 20.797 12.864 42.237 16.576 63.997h128.768c-15.59-123.729-75.795-237.508-169.325-319.997-93.523-82.483-213.939-128-338.643-128h-0.64c-67.212-0.205-133.796 12.928-195.898 38.637s-118.488 63.475-165.894 111.123l-149.568-149.76zM164.736 511.997h-128.768c15.582 123.682 75.753 237.43 169.226 319.91s213.826 128.024 338.486 128.090h0.32c67.223 0.213 133.818-12.914 195.936-38.621 62.112-25.707 118.509-63.482 165.92-111.139l150.144 149.76v-448h-448l206.208 206.080c-35.2 36.001-77.229 64.62-123.629 84.181-46.394 19.561-96.228 29.671-146.579 29.739-79.313-0.117-156.643-24.79-221.367-70.628s-113.668-110.595-140.105-185.372h-1.152c-7.36-20.8-12.928-42.24-16.576-64h-0.064z" />
<glyph unicode="&#xe926;" glyph-name="package" horiz-adv-x="996" d="M968.707 718.588c0 3.89-0.865 7.781-2.591 11.455-3.459 7.348-10.16 12.319-17.508 13.832l-440.246 213.531c-7.134 3.458-15.562 3.458-22.693 0l-444.57-215.477c-8.645-4.106-14.264-12.751-14.697-22.477v-0.216c0-0.216 0-0.432 0-0.864v-540.745c0-9.941 5.619-19.018 14.697-23.342l444.57-215.475c0.216 0 0.216 0 0.432-0.216 0.649-0.216 1.297-0.432 1.946-0.865 0.216 0 0.432-0.216 0.862-0.216 0.649-0.216 1.297-0.432 1.946-0.649 0.216 0 0.432-0.216 0.649-0.216 0.649-0.216 1.513-0.216 2.162-0.432 0.216 0 0.432 0 0.649 0 0.865 0 1.946-0.216 2.81-0.216s1.946 0 2.81 0.216c0.216 0 0.432 0 0.646 0 0.649 0 1.513 0.216 2.162 0.432 0.216 0 0.432 0.216 0.649 0.216 0.649 0.216 1.297 0.432 1.946 0.649 0.216 0 0.432 0.216 0.865 0.216 0.649 0.216 1.297 0.432 1.946 0.865 0.216 0 0.216 0 0.432 0.216l445.864 216.124c8.863 4.324 14.697 13.4 14.697 23.342v539.664c-0.432 0.216-0.432 0.432-0.432 0.648zM496.907 905.32l385.567-186.948-141.995-68.943-385.567 186.947 141.995 68.944zM496.907 531.425l-385.568 186.948 184.138 89.26 385.567-186.949-184.138-89.259zM78.273 676.66l392.699-190.405v-482.608l-392.699 190.407v482.606zM522.843 3.647v482.608l184.354 89.475v-126.217c0-14.265 11.671-25.936 25.936-25.936 14.262 0 25.933 11.671 25.933 25.936v151.504l157.773 76.508v-482.606l-393.995-191.272z" />
<glyph unicode="&#xe927;" glyph-name="phone-call" horiz-adv-x="979" d="M239.087 924.478c15.54 1.874 31.278-1.337 44.826-9.174l4.957-3.13c11.157-7.727 19.945-18.491 25.304-31.044l97.869-228.304c4.662-10.939 6.573-22.955 5.522-34.826-1.054-11.847-5.017-23.267-11.522-33.218l-81.087-123.915c-0.49-0.744-0.806-1.629-0.87-2.52-0.053-0.833 0.114-1.683 0.435-2.435l7.217-14.087c37.613-69.387 96.15-125.342 167.434-159.824 0.735-0.312 1.558-0.459 2.391-0.392 0.89 0.067 1.745 0.374 2.48 0.868l0.218 0.129 121.914 81.261c10.004 6.683 21.522 10.756 33.476 11.869 11.967 1.109 24.077-0.801 35.132-5.521l228.040-97.739 5.262-2.52c12.052-6.318 22.101-15.943 28.957-27.786 7.84-13.552 11.086-29.304 9.216-44.824v-0.263c-8.254-64.454-39.745-123.713-88.523-166.649-48.778-42.928-111.54-66.605-176.52-66.609-184.494 0-361.454 73.283-491.913 203.74-126.371 126.375-199.092 296.386-203.522 474.607l-0.217 17.305c0.010 64.975 23.719 127.75 66.652 176.522 42.94 48.766 102.2 80.195 166.652 88.435l0.218 0.043zM247.044 858.217c-48.233-6.234-92.551-29.844-124.696-66.348-32.197-36.577-49.99-83.662-50-132.391l0.174-15.653c4.007-161.112 69.763-314.801 184-429.044 117.935-117.929 277.913-184.173 444.696-184.173l9.131 0.174c45.457 2.075 88.963 19.603 123.258 49.784 36.521 32.145 60.104 76.493 66.351 124.737 0.138 1.175-0.080 2.386-0.654 3.393-0.592 1.024-1.532 1.843-2.609 2.302l-0.085 0.045-228.045 97.783c-0.846 0.361-1.808 0.476-2.738 0.392-0.45-0.045-0.886-0.156-1.304-0.303l-1.26-0.61-121.74-81.132c-10.365-7.017-22.399-11.219-34.869-12.172-9.341-0.712-18.73 0.392-27.608 3.259l-8.913 3.566c-89.521 43.293-161.926 115.414-205.61 204.738l-0.087 0.174c-5.395 11.224-7.79 23.681-6.957 36.089l1.218 9.216c1.812 9.096 5.378 17.813 10.522 25.609l80.956 123.697c0.494 0.763 0.787 1.663 0.87 2.565 0.075 0.873-0.050 1.778-0.391 2.609l-97.913 228.391c-0.46 1.073-1.253 1.977-2.261 2.565-1.023 0.592-2.22 0.837-3.392 0.696l-0.043 0.043zM585.479 736.651l3.304-0.695 16.785-5.13c38.663-13.17 73.87-35.059 102.867-64.044 33.142-33.142 57.037-74.438 69.218-119.696 4.791-17.808-5.757-36.124-23.565-40.914-17.8-4.773-36.125 5.766-40.911 23.566-9.14 33.957-27.047 64.915-51.917 89.783-21.758 21.759-48.195 38.2-77.214 48.087l-12.568 3.826-3.259 1.087c-15.801 6.025-24.821 23.142-20.346 39.826 4.488 16.696 20.903 27.028 37.608 24.304zM928.216 587.391c4.791-17.807-5.757-36.121-23.565-40.913-17.8-4.78-36.12 5.765-40.911 23.565l64.476 17.348zM625.784 887.217l3.304-0.695 13.392-3.826c66.44-20.228 126.958-56.534 176.173-105.739 52.491-52.494 90.281-117.874 109.564-189.565l-64.476-17.348c-16.246 60.392-48.088 115.475-92.307 159.695-41.45 41.443-92.432 72.003-148.391 89.043l-11.26 3.218-3.259 1.087c-15.801 6.024-24.821 23.142-20.351 39.826 4.492 16.697 20.907 27.028 37.612 24.304z" />
<glyph unicode="&#xe928;" glyph-name="pi" horiz-adv-x="853" d="M440.588 960c-280.653 0-429.907-179.848-429.907-375.953 0-90.948 50.818-204.359 132.166-240.33 12.353-5.569 19.073-3.203 21.825 8.255 2.432 8.704 13.12 50.627 18.305 70.405 1.6 6.336 0.768 11.84-4.352 17.793-27.009 31.233-48.451 88.132-48.451 141.511 0 136.774 108.741 269.58 293.774 269.58 160.006 0 271.946-103.941 271.946-252.62 0-168.007-88.9-284.237-204.425-284.237-63.937 0-111.556 50.182-96.451 112.262 18.241 73.924 54.018 153.415 54.018 206.73 0 47.81-27.009 87.364-82.179 87.364-65.091 0-117.893-64.451-117.893-150.983 0-54.979 19.457-92.1 19.457-92.1s-64.387-260.109-76.355-308.686c-20.225-82.244 2.752-215.433 4.736-226.89 1.216-6.337 8.321-8.323 12.289-3.135 6.336 8.317 84.164 119.364 105.989 199.623 7.937 29.247 40.514 147.849 40.514 147.849 21.441-38.724 83.332-71.174 149.257-71.174 196.102 0 337.806 172.362 337.806 386.258-0.705 205.065-176.202 358.48-402.067 358.48z" />
<glyph unicode="&#xe929;" glyph-name="pie" horiz-adv-x="1536" d="M864.186 912.838c7.174-0.626 13.83-4.053 18.438-9.562l67.501-80.188c37.894-3.238 73.171-21.167 98.502-49.5 23.61 14.925 50.97 22.875 79.309 22.875 51.45-0.011 98.65-26.903 125.69-69.375 20.083 9.912 41.984 15 64.563 15 82.387-0.015 149.427-67.048 149.434-149.437 0-4.078-0.147-8.215-0.499-12.375 45.728-30.407 68.877-65.94 68.877-105.812-0.013-105.874-75.962-186.905-178.624-193.625l-60.877-58.31c-32.826-31.456-47.494-50.483-69.747-79.251-7.354-9.536-15.456-20.019-25.126-32.128-72.749-91.123-145.498-130.061-243.123-130.061h-369.128c-97.605 0-170.328 38.906-243.124 130.061-9.715 12.16-17.773 22.598-25.125 32.128-22.23 28.781-36.977 47.782-69.812 79.251l-60.75 58.182c-107.020 6.694-190.551 90.919-190.563 193.753 0 35.818 18.887 68.175 56.188 96.438-1.242 7.5-1.813 14.636-1.813 21.75 0.004 38.497 14.478 74.716 41 102.625l29.938 80.813c5.168 14.109 20.886 21.336 34.938 16.062l123.25-45.562c28.095 31.546 68.061 49.867 110.563 49.875 28.344 0 55.689-7.96 79.312-22.875 28.074 31.424 68.427 50.056 110.938 50.062 23.356 0 46.148-5.492 66.939-16.063 29.971 27.718 68.845 43.249 109.747 43.251 5.152 0 10.426-0.317 16-0.938l18.688 15.687 48.627 40.938c2.202 1.875 4.826 3.074 7.437 4.187 3.885 1.659 8.038 2.675 12.435 2.125zM775.002 364.213c-37.133-50.159-108.499-84.188-190.252-84.188-81.743 0.006-153.139 34.022-190.25 84.188-4.191-5.64-8.916-10.979-13.937-16.188-1.473-1.519-3.020-3.004-4.563-4.5-3.912-3.772-8.053-7.435-12.375-10.938-1.688-1.359-3.316-2.762-5.062-4.062-12.067-9.128-25.516-17.204-40.125-24.001-2.090-0.966-4.239-1.837-6.375-2.752-5.625-2.426-11.446-4.646-17.375-6.682-2.219-0.762-4.422-1.613-6.687-2.317-7.978-2.528-16.129-4.768-24.563-6.56l25.5-24.499c35.759-34.24 52.303-55.59 75.187-85.19 7.192-9.312 15.115-19.546 24.625-31.437 62.156-77.85 120.281-109.626 200.625-109.626h369.128c80.339 0 138.464 31.776 200.621 109.626 9.459 11.872 17.421 22.086 24.627 31.437 22.906 29.594 39.488 50.931 75.251 85.19l25.747 24.621c-8.442 1.792-16.608 4.134-24.563 6.63-1.99 0.627-3.917 1.267-5.875 1.933-6.214 2.118-12.237 4.474-18.125 7.002-1.907 0.806-3.846 1.626-5.683 2.502-14.707 6.758-28.179 14.771-40.192 23.935-1.542 1.195-3.040 2.468-4.563 3.688-4.416 3.58-8.595 7.303-12.557 11.187-1.446 1.406-2.931 2.82-4.314 4.25-4.973 5.183-9.632 10.537-13.754 16.188-37.242-49.872-108.416-83.626-189.875-83.626-81.747 0.006-153.126 34.022-190.246 84.188zM759.622 796.276c-31.846-0.434-61.901-15.036-82.56-40.5-9.088-11.143-25.286-13.315-36.998-4.876-16.548 12.012-35.849 18.375-55.689 18.375-33.984-0.010-64.672-17.936-82-47.937-4.216-7.227-11.459-12.138-19.75-13.313-8.414-1.148-16.653 1.61-22.688 7.375-17.88 17.203-41.247 26.687-65.812 26.687-25.277 0-48.898-10.723-66.5-28.687 0.314-3.908-0.022-7.869-1.437-11.625l-55.437-149.875c-4.043-10.98-14.473-17.75-25.5-17.75-3.148 0.001-6.348 0.517-9.437 1.687l-126.25 46.688c0.656-4.918 1.628-10.111 3.313-16 3.258-11.532-1.382-23.844-11.437-30.313-31.219-20.093-47.047-40.833-47.062-61.687 0-77.25 66.297-140.063 147.813-140.063 90.456 0.010 165.125 49.772 165.125 108.687 0.001 15.034 12.153 27.188 27.187 27.188 15.023 0 27.187-12.154 27.188-27.188 0-58.921 74.669-108.686 163.062-108.687 88.383 0 163.064 49.766 163.064 108.687 0 15.034 12.16 27.188 27.187 27.188 15.034-0.003 27.187-12.155 27.187-27.188 0-58.922 74.675-108.687 163.059-108.687s163.066 49.766 163.066 108.687c0 15.033 12.154 27.185 27.187 27.188 15.034 0 27.187-12.154 27.187-27.188 0-59.519 72.691-108.277 161.997-108.687 77.971 0.385 136.973 60.593 137.062 140.063 0 23.423-19.418 46.463-57.683 68.563-10.24 5.916-15.488 17.761-12.941 29.312 1.549 7.101 2.253 13.723 2.253 20.25-0.006 52.45-42.675 95.125-95.123 95.125-21.133-0.001-41.402-7.263-58.63-20.938-6.899-5.461-15.994-7.266-24.371-4.875-8.435 2.427-15.162 8.695-18.125 16.937-13.562 37.758-49.389 63.188-89.126 63.188-24.563 0-47.93-9.461-65.811-26.687-6.035-5.789-14.227-8.653-22.688-7.375-8.288 1.172-15.565 6.059-19.75 13.313-17.331 30.024-48.019 47.928-82.003 47.937-1.19 0-2.355-0.23-3.558-0.312l-67.936-57.187c-5.114-4.266-11.328-6.313-17.504-6.313-7.763 0.004-15.462 3.244-20.813 9.625l-68.314 81.188zM1014.125 569.026c14.323 4.16 29.421-4.289 33.498-18.75l29.568-104.625c4.109-14.435-4.294-29.505-18.752-33.563l-104.627-29.5c-2.445-0.703-4.966-1.062-7.437-1.062-11.834 0.007-22.746 7.861-26.125 19.812l-29.498 104.687c-4.090 14.42 4.294 29.459 18.746 33.5l104.627 29.5zM1261.69 620.776l106.624-21.25c14.726-2.965 24.275-17.305 21.312-32l-21.248-106.625c-2.566-12.924-13.933-21.872-26.63-21.875-1.728 0-3.546 0.179-5.312 0.563l-106.624 21.313c-14.726 2.964-24.301 17.244-21.376 31.937l21.312 106.625c2.944 14.718 17.267 24.39 31.942 21.313zM950.438 494.651l14.752-52.375 52.307 14.813-14.746 52.312-52.314-14.75zM510.375 671.213c8.919 12.061 25.933 14.683 38 5.687l87.375-64.625c12.065-8.914 14.612-25.931 5.69-38l-64.69-87.437c-4.266-5.771-10.669-9.684-17.812-10.75-1.311-0.187-2.666-0.25-4-0.25-5.786 0.002-11.491 1.834-16.188 5.313l-87.375 64.687c-12.045 8.919-14.619 25.958-5.687 38l64.687 87.375zM1267.123 508.838l53.254-10.625 10.688 53.313-53.318 10.625-10.624-53.313zM505.562 573.338l43.688-32.312 32.312 43.688-43.687 32.312-32.313-43.688zM130.25 632.838l98.937-36.563 36.563 98.938-98.937 36.563-36.563-98.938zM816.998 812.463l34.938-41.563 41.626 35-35.002 41.562-41.562-35z" />
<glyph unicode="&#xe92a;" glyph-name="potatoes" horiz-adv-x="1229" d="M58.503 860.692c80.597 98.887 168.559 118.881 276.7 62.95 70.164-36.282 136.922-108.069 195.798-171.4 15.749-16.92 30.792-33.042 45.302-47.9 40.586 7.416 82.432 12.513 121.902 17.2 47.334 5.605 92.042 10.889 124.6 19.4 216.284 56.602 346.829 90.763 397.896-104.3 33.295-127.228-37.422-268.114-180.296-362.251 0.512-17.961-0.65-37.514-3.85-59.151-13.312-90.235-74.010-167.48-170.9-217.446-70.077-36.157-153.221-54.851-240.502-54.851-30.321 0-61.153 2.232-92.099 6.799-120.056 17.731-228.201 68.198-304.551 142.1-78.337 75.822-114.103 167.265-100.8 257.5 1.415 9.472 3.12 18.488 5.050 27.249-143.040 158.836-174.76 360.794-74.25 484.101zM335.802 500.342c-10.35-0.628-20.016-1.819-29.25-3.3-1.107-0.176-2.293-0.295-3.4-0.5-8.729-1.517-16.926-3.5-24.7-5.85-1.186-0.355-2.383-0.717-3.55-1.1-7.683-2.511-14.904-5.428-21.65-8.8-0.778-0.403-1.563-0.847-2.35-1.25-6.922-3.672-13.442-7.746-19.4-12.4l-0.1-0.1c-6.199-4.851-11.883-10.32-17.1-16.35-0.15-0.178-0.341-0.372-0.5-0.55-4.976-5.802-9.477-12.233-13.6-19.15-0.419-0.707-0.831-1.413-1.25-2.15-3.916-6.845-7.492-14.213-10.65-22.149-0.355-0.906-0.695-1.864-1.050-2.801-3.094-8.156-5.869-16.809-8.25-26.102-2.773-10.865-5.113-22.461-6.95-34.949-11.156-75.561 19.981-153.303 87.65-218.798 69.661-67.415 169.047-113.551 279.899-129.9 110.833-16.312 219.387-0.891 305.551 43.551 83.686 43.151 135.941 108.539 147.098 184.1 2.934 19.881 4.014 36.823 3.651 51.497l-0.947 10.752c-3.323 38.892-19.22 64.369-53.453 83.297-0.282 0.159-0.568 0.297-0.85 0.451-44.344 24.182-118.907 37.704-235.899 54.953-36.342 5.381-80.927 18.371-128.102 32.148-28.14 8.203-57.697 16.854-87.248 24.4-0.91 0.241-1.83 0.477-2.75 0.7-8.578 2.175-17.191 4.25-25.75 6.2-4.013 0.891-7.987 1.647-12 2.5-5.661 1.209-11.377 2.45-17 3.5-3.556 0.673-7.063 1.142-10.6 1.75-6.152 1.049-12.311 2.145-18.35 2.95-2.3 0.318-4.519 0.479-6.8 0.75-2.774 0.328-5.526 0.579-8.3 0.85-6.693 0.694-13.059 1.143-19.2 1.5-5.976 0.318-11.901 0.487-17.7 0.45-5.103 0.001-10.431 0.19-15.15-0.1zM681.902 129.541c10.24 6.881 24.192 4.137 31.099-6.149 6.876-10.26 4.122-24.166-6.149-31.053l-76.8-51.4c-3.799-2.54-8.125-3.794-12.401-3.799-7.235 0-14.326 3.502-18.647 9.953-6.876 10.26-4.127 24.177 6.149 31.048l76.749 51.4zM285.602 350.193c11.997 2.985 24.133-4.311 27.15-16.302l22.45-89.6c2.981-12.006-4.34-24.197-16.35-27.197-1.832-0.466-3.636-0.701-5.45-0.701-10.040 0-19.15 6.82-21.7 16.998l-22.45 89.6c-2.981 12.012 4.341 24.202 16.35 27.203zM594.954 336.594l89.098-24.504c11.93-3.261 18.959-15.58 15.698-27.5-2.734-9.938-11.771-16.486-21.596-16.497-1.946 0-3.978 0.241-5.949 0.799l-89.103 24.448c-11.935 3.272-18.959 15.631-15.698 27.551 3.272 11.945 15.606 19.011 27.551 15.703zM1177.354 625.242c-38.026 145.238-107.587 134.009-343.204 72.35-35.558-9.307-81.741-14.817-130.647-20.6-82.258-9.74-175.519-20.798-239.201-52.55-44.006-21.957-72.216-47.756-86.85-79.8 2.868-0.244 5.897-0.541 8.85-0.85 66.010-5.878 137.73-26.769 202.8-45.8 34.166-9.982 66.872-19.547 95.15-25.8 0.113-0.018 0.297-0.081 0.399-0.1 9.446-2.087 18.376-3.813 26.701-5.050 58.926-8.69 111.524-16.542 156.652-27.049 0.829-0.205 1.669-0.353 2.499-0.553 7.649-1.812 15.089-3.753 22.298-5.75 3.256-0.87 6.589-1.731 9.702-2.647 3.077-0.927 5.97-1.935 8.95-2.903 19.64-6.2 36.884-13.343 51.999-21.699l0.2-0.097c2.749-1.526 5.734-2.893 8.351-4.5 2.56-1.577 4.659-3.395 7.050-5.053 0.768-0.532 1.495-1.116 2.253-1.649 14.182-10.132 25.759-21.837 34.749-35.297 0.737-1.101 1.505-2.186 2.196-3.302 2.504-4.014 4.772-8.248 6.851-12.6 0.916-1.9 1.731-3.886 2.55-5.847 1.848-4.332 3.569-8.735 5.002-13.404 0.138-0.384 0.317-0.737 0.451-1.147 115.021 82.77 171.228 198.51 144.251 301.699zM223.952 909.792c-47.015 0-88.175-25.238-130.7-77.4-82.274-100.951-58.267-266.977 54.95-405.45 0.41 0.911 0.926 1.715 1.3 2.601 3.272 7.526 6.878 14.679 10.75 21.449 0.607 1.052 1.276 2.057 1.9 3.1 4.029 6.736 8.394 13.041 13.050 19 0.385 0.497 0.747 1.053 1.15 1.55 21.674 27.109 50.149 46.179 85.8 57.7 0.513 0.15 1.037 0.291 1.55 0.45 16.828 5.287 35.238 8.934 55.3 10.95 1.255 0.131 2.376 0.437 3.65 0.55 15.876 50.753 53.734 90.53 115.25 121.2 23.389 11.671 51.406 21.535 84.901 29.85-8.038 8.534-16.254 17.376-24.601 26.35-56.399 60.674-120.338 129.431-183.6 162.15-33.222 17.183-62.958 25.949-90.65 25.95zM1083.853 546.692c9.16 8.288 23.342 7.609 31.652-1.55 8.31-9.169 7.613-23.336-1.551-31.65l-68.403-62.1c-4.27-3.898-9.677-5.798-15.048-5.798-6.098 0.005-12.16 2.479-16.599 7.348-8.3 9.164-7.598 23.333 1.551 31.65l68.398 62.1zM778.604 641.492c12.022 2.988 24.131-4.309 27.151-16.3l22.446-89.6c2.985-12.019-4.337-24.191-16.348-27.2-1.833-0.457-3.635-0.7-5.453-0.7-10.040 0.001-19.149 6.829-21.699 17l-22.451 89.601c-2.98 12.009 4.342 24.19 16.353 27.2zM115.253 654.092c6.586 10.453 20.478 13.543 30.9 7l78.15-49.3c10.467-6.616 13.599-20.439 7-30.9-4.256-6.75-11.556-10.45-19-10.45-4.093 0.002-8.228 1.118-11.9 3.45l-78.15 49.3c-10.455 6.612-13.607 20.441-7 30.9zM288.153 824.191c10.265 6.862 24.2 4.133 31.1-6.15 6.88-10.264 4.13-24.218-6.15-31.1l-76.8-51.4c-3.805-2.547-8.129-3.796-12.4-3.8-7.231 0-14.327 3.511-18.65 9.95-6.881 10.265-4.134 24.228 6.15 31.1l76.75 51.4z" />
<glyph unicode="&#xe92b;" glyph-name="salad" horiz-adv-x="1164" d="M815.681 938.909c103.005-0.003 186.899-83.046 188.5-185.682 68.329-29.773 113.32-97.523 113.32-172.773 0-33.383-9.007-65.812-25.591-94.362h3.682c12.293-0.005 24.162-5.171 32.591-14.182 8.481-9.090 12.902-21.42 12.088-33.866-11.19-165.018-116.168-247.864-270.317-321.499-17.222-8.225-31.446-21.955-40.043-38.591-8.387-16.24-7.094-37.204 3.454-54.728 8.28-13.768 8.532-29.929 0.819-43.59-7.722-13.638-21.695-21.774-37.367-21.774h-429.952c-15.678 0-29.641 8.127-37.364 21.774-7.713 13.661-7.497 29.84 0.591 43.273 10.737 17.855 12.093 38.828 3.682 55.091-8.625 16.645-22.838 30.32-40.045 38.544-154.193 73.635-259.144 156.477-270.318 321.499-0.844 12.437 3.531 24.818 12.045 33.908 8.425 9.011 20.302 14.178 32.591 14.182h17.772c-6.481 8.765-10.449 19.328-10.455 30.502 0 16.769 8.201 32.59 21.909 42.273l6.682 4.682c5.501 3.866 7.456 11.119 4.636 17.227l-3.455 7.363c-7.053 15.249-6.248 33.009 2.136 47.545 8.378 14.506 23.395 24.128 40.091 25.636l8.091 0.728c6.697 0.605 12.030 5.894 12.637 12.591l0.727 8.136c1.509 16.693 11.064 31.667 25.591 40.045 14.505 8.378 32.315 9.193 47.545 2.136l7.364-3.409c1.923-0.885 3.792-1.076 5.545-1 2.207 5.736 4.915 11.307 8.545 16.454l108.636 154.227c23.966 34.040 71.151 42.185 105.181 18.227 16.407-11.565 27.369-28.897 30.818-48.818 3.468-19.876-1.033-39.89-12.591-56.318l-59.408-84.273c12.137-8.318 20.614-21.466 22.046-37.318l0.727-8.091c0.456-5.032 3.591-9.266 7.907-11.318 1.68 4.338 2.965 8.412 3.23 11.318l0.726 8.136c1.513 16.685 11.064 31.667 25.591 40.045 14.55 8.378 32.326 9.228 47.546 2.136l7.41-3.455c6.070-2.813 13.317-0.818 17.18 4.636l4.682 6.682c9.64 13.696 25.456 21.863 42.226 21.863 4.031 0 8.020-0.506 11.864-1.409 1.662 102.596 85.504 185.591 188.5 185.591zM68.091 448.363c-2.461 0-4.106-1.164-5.046-2.183-0.817-0.884-2.182-2.783-2-5.59 9.963-147.256 102.645-220.155 248.955-289.997 24.553-11.72 44.918-31.33 57.272-55.231 14.395-27.825 12.585-62.929-4.682-91.587-1.474-2.476-0.943-4.357-0.273-5.548 0.682-1.21 2.057-2.634 4.546-2.634h429.911c2.499 0 3.826 1.452 4.496 2.634 0.698 1.192 1.238 3.077-0.042 5.227-17.445 28.975-19.256 64.056-4.864 91.867 12.381 23.896 32.735 43.534 57.316 55.273 146.283 69.865 238.941 142.746 248.911 289.997 0.2 2.825-1.145 4.706-1.955 5.59-0.963 1.024-2.602 2.183-5.046 2.183h-1027.501zM721.32 71.047c10.412 0 18.86-8.434 18.86-18.865s-8.448-18.865-18.86-18.865h-283.001c-10.405 0.009-18.861 8.439-18.863 18.865 0 10.426 8.456 18.856 18.863 18.865h283.001zM502.225 127.637c10.412-0.009 18.865-8.439 18.865-18.865-0.009-10.417-8.462-18.856-18.865-18.865h-63.907c-10.419 0.009-18.847 8.448-18.863 18.865 0 10.426 8.456 18.856 18.863 18.865h63.907zM721.32 127.637c10.412 0 18.86-8.434 18.86-18.865-0.005-10.426-8.453-18.865-18.86-18.865h-164.273c-10.403 0.009-18.856 8.448-18.865 18.865 0 10.426 8.457 18.856 18.865 18.865h164.273zM626.725 711.136c-5.264 7.458-17.478 7.48-22.77-0.046l-4.682-6.682c-14.355-20.346-41.295-27.538-63.907-17.091l-7.41 3.455c-4.152 1.969-8.867 1.693-12.819-0.591-3.966-2.275-6.47-6.216-6.865-10.772l-0.773-8.136c-0.563-6.205-2.23-12.537-4.18-18.273 0.842-0.546 1.462-1.395 2.271-2 2.718-2.018 5.311-4.182 7.592-6.727 1.089-1.225 1.969-2.591 2.956-3.909 1.182-1.576 2.546-3.005 3.542-4.727 0.531-0.937 0.805-1.993 1.275-2.955 0.358-0.684 0.908-1.225 1.229-1.954 0.526-1.219 0.773-2.528 1.224-3.773 0.531-1.508 1.019-2.996 1.41-4.546 0.605-2.368 0.963-4.799 1.229-7.227 0.154-1.408 0.372-2.819 0.405-4.227 0.061-2.713-0.214-5.432-0.586-8.137-0.154-1.152-0.168-2.302-0.41-3.455-0.791-3.835-1.964-7.613-3.64-11.227l-3.454-7.409c-2.811-6.063-0.894-13.31 4.594-17.182l6.679-4.727c5.455-3.852 9.775-8.864 13.317-14.318 3.123-4.825 5.725-9.984 7.094-15.591 0.433-1.701 0.433-3.492 0.68-5.227 0.317-2.342 0.815-4.636 0.819-7.046-0.019-3.716-0.526-7.429-1.317-11-0.186-0.858-0.396-1.687-0.638-2.546-0.963-3.509-2.164-6.962-3.817-10.184-0.061-0.093-0.13-0.177-0.182-0.27-1.21-2.267-2.523-4.478-4.045-6.544h247.817c0.358 0.559 0.852 1.038 1.229 1.587 0.973 1.443 2.062 2.807 3.179 4.138 0.777 0.903 1.527 1.885 2.365 2.728 2.090 2.149 4.324 4.113 6.772 5.864 0.074 0.060 0.121 0.139 0.182 0.182l6.726 4.728c3.714 2.638 5.86 6.752 5.865 11.318 0 4.583-2.132 8.778-5.865 11.454l-6.726 4.728c-2.253 1.581-4.305 3.369-6.228 5.273-1.010 0.978-1.899 2.081-2.816 3.136-0.726 0.852-1.471 1.659-2.136 2.546-1.219 1.608-2.309 3.236-3.319 4.954-0.112 0.184-0.209 0.406-0.321 0.591-7.959 13.849-9.398 30.971-2.681 46.363 0.135 0.337 0.214 0.619 0.363 0.955l3.458 7.5c1.922 4.133 1.708 8.819-0.591 12.773-2.285 3.963-6.205 6.512-10.775 6.909l-8.136 0.728c-24.837 2.224-44.497 21.909-46.774 46.773l-0.726 8.091c-0.391 4.584-2.946 8.517-6.907 10.818-3.947 2.274-8.606 2.459-12.772 0.546l-7.41-3.409c-2.607-1.207-5.288-2.132-8.001-2.864-1.522-0.407-3.053-0.628-4.589-0.909-1.066-0.186-2.118-0.433-3.184-0.546-2.285-0.264-4.627-0.307-6.907-0.272h-0.545c-15.83 0.483-31.064 8.043-40.685 21.682l-4.682 6.682zM1000.592 713.046c-1.96-9.771-4.906-19.181-8.318-28.364-0.298-0.835-0.596-1.71-0.912-2.546-1.503-3.88-3.156-7.664-4.906-11.409-0.642-1.381-1.294-2.736-1.955-4.091-1.699-3.417-3.463-6.785-5.367-10.091-0.912-1.577-1.88-3.139-2.816-4.682-1.88-3.055-3.77-6.138-5.818-9.091-1.15-1.66-2.406-3.218-3.593-4.818-3.37-4.539-6.926-8.892-10.682-13.091-1.974-2.233-3.947-4.506-6.042-6.636-1.829-1.843-3.742-3.597-5.637-5.364-2.225-2.080-4.45-4.15-6.772-6.136-1.946-1.662-3.938-3.233-5.958-4.818-2.453-1.925-4.952-3.822-7.498-5.636-2.020-1.431-4.059-2.828-6.135-4.182-2.788-1.831-5.669-3.504-8.546-5.181-1.96-1.151-3.938-2.327-5.958-3.409-3.589-1.924-7.317-3.641-11.045-5.318-1.382-0.637-2.755-1.351-4.18-1.955-5.148-2.165-10.44-4.096-15.821-5.818-1.69-0.543-3.426-0.916-5.134-1.409-3.835-1.091-7.708-2.148-11.636-3-2.127-0.468-4.31-0.828-6.456-1.227-3.635-0.654-7.294-1.223-10.999-1.682-2.234-0.281-4.515-0.54-6.772-0.728-1.485-0.11-2.951-0.36-4.454-0.454l4.319-3.045c13.694-9.622 21.909-25.438 21.909-42.227-0.005-3.725-0.545-7.374-1.322-10.954-0.186-0.899-0.442-1.771-0.68-2.636-0.963-3.481-2.122-6.937-3.775-10.139-0.056-0.093-0.13-0.182-0.182-0.27-1.192-2.257-2.518-4.468-4.045-6.544h66.593v75.498c0.005 10.424 8.439 18.857 18.865 18.863 10.426 0 18.856-8.435 18.86-18.863v-75.498h98.728c21.565 26.811 33.364 60.024 33.364 94.362 0 55.851-31.041 106.535-79.225 132.591zM226.046 690.773c-4.145 1.918-8.832 1.733-12.773-0.546-3.963-2.301-6.463-6.25-6.864-10.818l-0.773-8.136c-2.273-24.849-21.924-44.543-46.773-46.773l-8.091-0.727c-4.578-0.4-8.515-2.912-10.818-6.864-2.276-3.98-2.534-8.696-0.591-12.864l3.409-7.318c10.49-22.718 3.295-49.601-17.136-63.954l-6.636-4.682c-3.748-2.658-5.907-6.809-5.909-11.409 0-4.602 2.16-8.722 5.909-11.364l6.682-4.728c5.484-3.86 10.169-8.815 13.772-14.456h348.002c0.186 0.298 0.475 0.568 0.68 0.866 1.229 1.829 2.616 3.519 4.045 5.181 0.633 0.717 1.192 1.531 1.866 2.23 2.183 2.25 4.557 4.353 7.135 6.18l6.451 4.546 0.228 0.136c1.341 0.946 2.234 2.267 3.137 3.545 0.372 0.523 0.991 0.854 1.275 1.409 1.019 1.952 1.545 4.154 1.545 6.455-0.005 4.58-2.192 8.721-5.958 11.454l-2.090 1.455-4.589 3.227c-10.179 7.165-17.101 17.464-20.136 28.818-0.735 2.73-1.168 5.511-1.457 8.318 0 0.123-0.028 0.249-0.047 0.364-0.815 8.811 0.61 17.897 4.547 26.409l3.454 7.409c0.922 1.994 1.303 4.159 1.229 6.273 0 0.077 0.047 0.196 0.047 0.273-0.098 1.918-0.74 3.779-1.638 5.545-0.382 0.732-0.959 1.316-1.452 1.954-0.768 1.020-1.583 2.015-2.593 2.773-0.656 0.503-1.406 0.853-2.136 1.227-1.503 0.739-3.053 1.48-4.817 1.636l-8.136 0.728c-24.839 2.244-44.502 21.911-46.774 46.773l-0.727 8.091c-0.409 4.638-2.854 8.039-6 10.136l-27.773-39.409c-11.565-16.404-28.916-27.351-48.818-30.818-4.366-0.756-8.742-1.136-13.091-1.136-0.324 0-0.631 0.091-0.955 0.091-1.217 0.018-2.411 0.196-3.636 0.273-3.263 0.213-6.495 0.56-9.682 1.182-1.549 0.281-3.039 0.691-4.545 1.091-2.998 0.767-5.94 1.751-8.819 2.909-1.314 0.5-2.629 0.969-3.909 1.545-4.027 1.891-7.97 4.060-11.682 6.682-4.225 2.956-8.070 6.32-11.546 10-1.014 1.099-1.764 2.395-2.727 3.545-2.252 2.712-4.518 5.418-6.364 8.409-1.057 1.696-1.77 3.537-2.682 5.318-1.336 2.639-2.779 5.216-3.818 8-0.867 2.374-1.362 4.84-2 7.273-0.552 2.083-1.306 4.085-1.682 6.227-0.059 0.321-0.034 0.662-0.091 1-0.076 0.395-0.264 0.788-0.318 1.182-5.806 0.452-11.52 1.915-16.909 4.409l-7.454 3.455zM613.683 556.045c7.354 7.381 19.298 7.381 26.68 0 7.377-7.372 7.382-19.302 0-26.682l-18.865-18.864c-3.677-3.678-8.532-5.5-13.363-5.5-4.822 0.005-9.64 1.828-13.317 5.5-7.377 7.371-7.377 19.301 0 26.682l18.865 18.863zM670.273 593.773c7.373 7.381 19.302 7.381 26.68 0l18.865-18.864c7.373-7.381 7.377-19.313 0-26.682-3.682-3.679-8.532-5.5-13.363-5.5-4.813 0.005-9.644 1.828-13.317 5.5l-18.865 18.863c-7.377 7.379-7.377 19.309 0 26.682zM1042.046 618.182c10.431 0 18.907-8.435 18.907-18.863 0-10.432-8.476-18.864-18.907-18.864h-75.455c-10.426 0.005-18.865 8.435-18.865 18.864 0.005 10.426 8.439 18.859 18.865 18.863h75.455zM613.725 650.364c7.373 7.379 19.261 7.38 26.638 0 7.382-7.372 7.377-19.256 0-26.637l-28.272-28.318c-3.672-3.682-8.532-5.545-13.363-5.545-4.827 0.003-9.649 1.867-13.321 5.545-7.377 7.372-7.377 19.301 0 26.682l28.318 28.273zM815.681 901.182c-83.233 0-150.919-67.73-150.91-150.955 0-9.122 0.898-18.552 2.728-28.091 1.801-1.004 3.803-1.552 5.772-1.682 0.107 0 0.209-0.043 0.321-0.046 2.001-0.076 4.022 0.274 5.907 1.136l7.363 3.455c3.64 1.679 7.429 2.844 11.273 3.637 1.327 0.262 2.667 0.239 4.003 0.409 2.146 0.281 4.278 0.727 6.451 0.727 0.358-0.001 0.735-0.182 1.094-0.182 1.424-0.030 2.825-0.163 4.226-0.364l8.453-1.455c4.152-1.159 8.239-2.747 12.046-4.954 5.697-3.298 10.389-7.831 14.364-12.864l26.908 26.909c7.373 7.381 19.312 7.381 26.685 0 7.363-7.373 7.373-19.306 0-26.682l-40.318-40.273c2.067-4.332 6.279-7.406 11.273-7.864l8.136-0.727c16.696-1.5 31.693-11.114 40.090-25.636 1.894-3.276 3.295-6.78 4.408-10.318 0.335-1.032 0.512-2.088 0.773-3.137 0.638-2.637 1.136-5.286 1.364-8 0.093-1.108 0.209-2.21 0.228-3.318 0.074-3.451-0.158-6.91-0.773-10.318l-0.047-0.727c0.475 0.040 0.954 0.013 1.41 0.045 2.453 0.23 4.883 0.614 7.317 0.955 2.369 0.332 4.785 0.611 7.135 1.045 2.285 0.435 4.524 1.017 6.772 1.545 2.42 0.568 4.864 1.078 7.229 1.773 2.095 0.596 4.124 1.302 6.181 2 2.448 0.818 4.934 1.653 7.322 2.591 1.894 0.737 3.738 1.58 5.59 2.409 2.434 1.072 4.897 2.156 7.27 3.364 1.704 0.869 3.393 1.852 5.046 2.773 2.434 1.36 4.873 2.694 7.229 4.182 1.499 0.933 2.914 1.963 4.366 2.955 2.406 1.66 4.817 3.321 7.135 5.091 1.257 0.962 2.453 2.024 3.682 3.045 2.388 1.973 4.78 3.937 7.042 6.045 1.015 0.963 1.978 1.975 2.956 2.955 2.378 2.335 4.748 4.693 6.954 7.182 0.745 0.845 1.457 1.729 2.183 2.591 2.337 2.736 4.641 5.548 6.772 8.455 0.489 0.667 0.963 1.353 1.457 2.046 2.276 3.187 4.478 6.48 6.498 9.863 0.265 0.45 0.512 0.914 0.773 1.364 2.164 3.713 4.198 7.509 6.046 11.409 0.074 0.164 0.154 0.336 0.228 0.5 7.997 16.998 12.935 35.728 14.043 55.545 0 0.058 0.033 0.148 0.047 0.182 0.172 2.808 0.41 5.613 0.41 8.455 0 83.223-67.696 150.952-150.91 150.955zM828.998 736.909c7.382 7.375 19.312 7.379 26.685 0l53.364-53.363c7.354-7.372 7.373-19.301 0-26.682-3.677-3.673-8.504-5.496-13.321-5.5-4.827 0-9.681 1.821-13.363 5.5l-53.364 53.364c-7.368 7.381-7.368 19.31 0 26.682zM455.5 878.636c-16.993 11.983-40.607 7.927-52.591-9.091l-108.682-154.273c-2.972-4.217-4.961-8.969-6-13.909-0.678-3.258-0.761-6.529-0.591-9.727 0.050-0.809 0.090-1.609 0.182-2.409 0.375-3.205 1.031-6.381 2.182-9.364 0.076-0.183 0.197-0.362 0.273-0.546 1.147-2.796 2.675-5.405 4.454-7.864 0.494-0.665 1.017-1.332 1.545-1.954 2.052-2.451 4.311-4.775 7-6.682l0.091-0.091c8.189-5.791 18.239-7.934 28.182-6.272 9.958 1.715 18.587 7.204 24.363 15.409l108.727 154.182c5.771 8.163 7.949 18.204 6.227 28.182-1.713 9.961-7.176 18.639-15.363 24.409zM722.32 843.591c7.368 7.381 19.298 7.381 26.68 0l53.364-53.318c7.377-7.37 7.373-19.301 0-26.682-3.677-3.668-8.495-5.54-13.321-5.545-4.831 0-9.681 1.864-13.363 5.545l-53.36 53.364c-7.373 7.37-7.373 19.266 0 26.636zM882.409 843.591c7.373 7.381 19.302 7.381 26.68 0 7.373-7.37 7.35-19.266 0-26.636l-53.36-53.364c-3.682-3.673-8.532-5.545-13.363-5.545-4.822 0.003-9.649 1.875-13.321 5.545-7.373 7.381-7.377 19.312 0 26.682l53.364 53.318z" />
<glyph unicode="&#xe92c;" glyph-name="search" d="M461.823 944.941c246.724-0.010 446.706-200.041 446.706-446.765-0.006-107.084-37.768-205.289-100.587-282.233l187.765-187.765 3.114-3.415c14.475-17.739 13.42-43.93-3.114-60.47-16.541-16.541-42.731-17.589-60.47-3.114l-3.415 3.114-187.765 187.765c-76.945-62.819-175.149-100.581-282.233-100.587-246.724 0-446.754 199.981-446.765 446.706 0 246.73 200.034 446.765 446.765 446.765zM461.823 854.588c-196.83 0-356.412-159.582-356.412-356.412 0.010-196.825 159.588-356.353 356.412-356.353 96.403 0.006 183.797 38.346 247.941 100.527 1.132 1.452 2.373 2.843 3.704 4.18 1.325 1.319 2.68 2.578 4.12 3.704 62.199 64.151 100.581 151.524 100.587 247.941 0 196.824-159.527 356.401-356.353 356.412z" />
<glyph unicode="&#xe92d;" glyph-name="setting" horiz-adv-x="1075" d="M630.804-64h-186.37c-11.677 0-23.004 3.988-32.102 11.305-9.098 7.322-15.421 17.531-17.92 28.938l-20.838 96.461c-27.799 12.18-54.157 27.412-78.592 45.414l-94.054-29.952c-11.132-3.548-23.145-3.185-34.042 1.034s-20.023 12.037-25.862 22.159l-93.389 161.331c-5.778 10.132-7.947 21.924-6.152 33.444 1.795 11.525 7.448 22.098 16.034 29.993l72.96 66.56c-3.318 30.152-3.318 60.575 0 90.726l-72.96 66.406c-8.598 7.897-14.258 18.48-16.054 30.014s0.381 23.337 6.172 33.474l93.184 161.434c5.839 10.121 14.965 17.941 25.862 22.16s22.909 4.584 34.042 1.034l94.054-29.952c12.493 9.216 25.498 17.818 38.963 25.6 12.902 7.27 26.214 13.875 39.834 19.763l20.89 96.358c2.487 11.407 8.798 21.622 17.887 28.951s20.409 11.331 32.084 11.343h186.37c11.674-0.012 22.994-4.015 32.082-11.343s15.401-17.544 17.889-28.951l21.094-96.41c27.781-12.18 54.124-27.412 78.541-45.414l94.106 29.952c11.126 3.537 23.127 3.166 34.012-1.053s20.004-12.030 25.841-22.141l93.184-161.434c11.93-20.838 7.782-47.206-9.882-63.437l-72.96-66.56c3.318-30.151 3.318-60.575 0-90.726l72.96-66.56c17.664-16.282 21.76-42.598 9.882-63.437l-93.184-161.434c-5.837-10.112-14.956-17.92-25.841-22.139s-22.886-4.593-34.012-1.055l-94.106 29.952c-24.412-17.992-50.755-33.208-78.541-45.363l-21.094-96.205c-2.499-11.397-8.812-21.601-17.9-28.918-9.088-7.322-20.403-11.315-32.072-11.325zM313.363 231.475l41.984-30.72c9.472-6.963 19.354-13.363 29.542-19.2 9.626-5.581 19.507-10.598 29.645-15.155l47.77-20.941 23.398-107.059h103.938l23.398 107.11 47.77 20.941c20.838 9.216 40.653 20.634 59.034 34.099l42.035 30.72 104.499-33.28 51.968 90.010-81.050 73.882 5.734 51.814c2.56 22.682 2.56 45.568 0 68.198l-5.734 51.814 81.101 74.035-52.019 90.061-104.499-33.28-42.035 30.72c-18.391 13.533-38.185 25.051-59.034 34.355l-47.77 20.941-23.398 107.059h-103.938l-23.501-107.11-47.667-20.89c-20.88-9.145-40.679-20.581-59.034-34.099l-42.035-30.72-104.448 33.28-52.070-90.317 81.050-73.779-5.734-51.866c-2.56-22.682-2.56-45.568 0-68.198l5.734-51.814-81.050-73.882 51.968-90.010 104.448 33.28zM537.416 243.2c-54.318 0-106.409 21.576-144.817 59.986-38.408 38.405-59.985 90.496-59.985 144.814s21.577 106.408 59.985 144.816 90.499 59.984 144.817 59.984c54.313 0 106.409-21.577 144.814-59.984s59.986-90.499 59.986-144.816c0-54.318-21.581-106.409-59.986-144.814-38.405-38.41-90.501-59.986-144.814-59.986zM537.416 550.4c-20.055-0.020-39.658-5.927-56.384-16.989s-29.835-26.79-37.703-45.234c-7.867-18.444-10.147-38.793-6.555-58.523 3.592-19.727 12.897-37.965 26.761-52.454 13.863-14.484 31.675-24.586 51.225-29.041 19.553-4.454 39.982-3.072 58.752 3.973 18.775 7.050 35.062 19.456 46.848 35.676 11.786 16.225 18.55 35.553 19.456 55.583v-20.48 25.088c0 27.158-10.788 53.204-29.993 72.408s-45.251 29.992-72.407 29.992z" />
<glyph unicode="&#xe92e;" glyph-name="star" horiz-adv-x="1126" d="M584.356 95.664l242.113-153.367c30.95-19.589 69.35 9.554 60.172 45.691l-69.927 275.138c-1.974 7.664-1.747 15.73 0.657 23.27s6.889 14.248 12.936 19.354l217.112 180.673c28.498 23.731 13.824 71.078-22.845 73.459l-283.508 18.432c-7.633 0.542-14.954 3.24-21.114 7.781s-10.903 10.738-13.677 17.87l-105.753 266.266c-2.881 7.567-7.991 14.080-14.658 18.676s-14.572 7.056-22.667 7.056c-8.097 0-16.002-2.461-22.668-7.056s-11.777-11.108-14.657-18.676l-105.754-266.266c-2.769-7.139-7.509-13.344-13.668-17.892s-13.485-7.252-21.122-7.797l-283.508-18.432c-36.634-2.343-51.379-49.69-22.847-73.421l217.114-180.71c6.041-5.103 10.52-11.805 12.924-19.337s2.637-15.59 0.67-23.249l-64.819-255.17c-11.021-43.356 35.098-78.336 72.192-54.794l225.024 142.502c6.324 4.020 13.663 6.156 21.158 6.156s14.796-2.136 21.12-6.156z" />
<glyph unicode="&#xe92f;" glyph-name="star2" horiz-adv-x="1050" d="M524.826 48.975c11.044-0.010 19.999-8.98 19.999-20.024v-76.777c0-11.041-8.955-20.014-19.999-20.024-11.052 0-20.024 8.973-20.024 20.024v76.777c0 11.049 8.97 20.024 20.024 20.024zM214.35 165.85c7.812 7.816 20.486 7.816 28.3 0 7.809-7.813 7.815-20.488 0-28.301l-54.3-54.298c-3.903-3.907-9.041-5.85-14.15-5.852-5.111 0-10.243 1.948-14.15 5.852-7.813 7.811-7.816 20.488 0 28.298l54.3 54.3zM806.95 165.85c7.813 7.816 20.488 7.818 28.301 0l54.298-54.3c7.811-7.813 7.813-20.488 0-28.298-3.904-3.907-9.037-5.85-14.149-5.852-5.11 0-10.248 1.946-14.149 5.852l-54.3 54.298c-7.816 7.813-7.816 20.49 0 28.301zM524.8 726.35c14.776-0.001 28.047-8.268 34.575-21.525l68.925-139.651 154.173-22.423c14.623-2.122 26.57-12.196 31.124-26.25 4.564-14.024 0.829-29.187-9.748-39.501l-111.575-108.7 7.099-41.449c1.874-10.89-5.432-21.256-16.325-23.124-10.885-1.871-21.235 5.458-23.099 16.348l-8.876 51.776c-1.119 6.49 1.037 13.13 5.75 17.725l116.925 114.025-161.6 23.45c-6.513 0.947-12.163 5.046-15.076 10.949l-72.3 146.476-72.274-146.476c-2.916-5.898-8.538-9.999-15.050-10.949l-161.651-23.45 116.977-114.025c4.718-4.598 6.863-11.233 5.75-17.725l-27.625-160.95 144.573 75.976c5.834 3.062 12.8 3.059 18.627 0l144.55-75.976-10.025 58.575c-1.869 10.888 5.435 21.23 16.325 23.099 10.88 1.869 21.222-5.44 23.099-16.325l10.55-61.55c2.488-14.559-3.397-28.997-15.324-37.676-6.625-4.813-14.459-7.373-22.651-7.373-6.223 0-12.442 1.531-17.951 4.424l-137.9 72.499-137.874-72.499c-5.676-2.982-11.84-4.475-17.976-4.475-7.974 0-15.885 2.522-22.625 7.424-11.945 8.689-17.823 23.15-15.324 37.701l26.324 153.549-111.549 108.726c-10.568 10.319-14.302 25.467-9.75 39.501 4.57 14.054 16.513 24.128 31.126 26.25l154.15 22.423 68.948 139.676c6.525 13.245 19.799 21.5 34.575 21.5zM105.775 468.024c11.045-0.005 19.999-8.978 20-20.024-0.005-11.041-8.955-19.994-20-19.999h-76.8c-11.048 0-20.020 8.952-20.025 19.999 0 11.049 8.975 20.024 20.025 20.024h76.8zM1020.626 468.024c11.046-0.005 19.999-8.978 19.999-20.024-0.005-11.041-8.955-19.994-19.999-19.999h-76.8c-11.046 0.005-20.022 8.957-20.027 19.999 0.003 11.044 8.978 20.019 20.027 20.024h76.8zM160.050 812.75c7.817 7.812 20.488 7.815 28.3 0l54.3-54.3c7.81-7.813 7.811-20.487 0-28.3-3.905-3.902-9.040-5.849-14.15-5.85-5.112 0-10.243 1.946-14.15 5.85l-54.3 54.3c-7.813 7.813-7.814 20.488 0 28.3zM861.251 812.775c7.811 7.821 20.485 7.815 28.298 0 7.811-7.813 7.816-20.489 0-28.3l-54.298-54.3c-3.904-3.91-9.042-5.849-14.152-5.85-5.112 0-10.245 1.946-14.149 5.85-7.816 7.814-7.816 20.486 0 28.3l54.3 54.3zM524.826 963.85c11.039-0.011 19.999-8.98 19.999-20.025v-76.8c-0.005-11.037-8.96-19.989-19.999-20-11.052 0-20.019 8.955-20.024 20v76.8c0 11.048 8.97 20.025 20.024 20.025z" />
</font>
</defs>
</svg>
